%TF.GenerationSoftware,KiCad,Pcbnew,10.0.6*%
%TF.CreationDate,2026-09-29T18:21:09+02:00*%
%TF.ProjectId,usb-c-pd-supply,7573622d-632d-4706-942d-737570706c79,rev?*%
%TF.SameCoordinates,Original*%
%TF.FileFunction,Copper,L4,Bot*%
%TF.FilePolarity,Positive*%
%FSLAX46Y46*%
G04 Gerber Fmt 4.6, Leading zero omitted, Abs format (unit mm)*
G04 Created by KiCad (PCBNEW 10.0.6) date 2026-09-29 18:21:09*
%MOMM*%
%LPD*%
G01*
G04 APERTURE LIST*
G04 Aperture macros list*
%AMRoundRect*
0 Rectangle with rounded corners*
0 $1 Rounding radius*
0 $2 $3 $4 $5 $6 $7 $8 $9 X,Y pos of 4 corners*
0 Add a 4 corners polygon primitive as box body*
4,1,4,$2,$3,$4,$5,$6,$7,$8,$9,$2,$3,0*
0 Add four circle primitives for the rounded corners*
1,1,$1+$1,$2,$3*
1,1,$1+$1,$4,$5*
1,1,$1+$1,$6,$7*
1,1,$1+$1,$8,$9*
0 Add four rect primitives between the rounded corners*
20,1,$1+$1,$2,$3,$4,$5,0*
20,1,$1+$1,$4,$5,$6,$7,0*
20,1,$1+$1,$6,$7,$8,$9,0*
20,1,$1+$1,$8,$9,$2,$3,0*%
G04 Aperture macros list end*
%TA.AperFunction,ComponentPad*%
%ADD10O,2.100000X1.000000*%
%TD*%
%TA.AperFunction,ComponentPad*%
%ADD11O,1.800000X1.000000*%
%TD*%
%TA.AperFunction,ComponentPad*%
%ADD12C,2.600000*%
%TD*%
%TA.AperFunction,ConnectorPad*%
%ADD13C,3.800000*%
%TD*%
%TA.AperFunction,ComponentPad*%
%ADD14RoundRect,0.250000X0.750000X-0.750000X0.750000X0.750000X-0.750000X0.750000X-0.750000X-0.750000X0*%
%TD*%
%TA.AperFunction,ComponentPad*%
%ADD15C,2.000000*%
%TD*%
%TA.AperFunction,ViaPad*%
%ADD16C,0.600000*%
%TD*%
%TA.AperFunction,Conductor*%
%ADD17C,0.200000*%
%TD*%
%TA.AperFunction,Conductor*%
%ADD18C,0.254000*%
%TD*%
%TA.AperFunction,Conductor*%
%ADD19C,0.508000*%
%TD*%
%TA.AperFunction,Conductor*%
%ADD20C,0.290576*%
%TD*%
G04 APERTURE END LIST*
D10*
%TO.P,J1,SH,SHIELD_SH*%
%TO.N,GND*%
X76602000Y-105789000D03*
D11*
X72422000Y-105789000D03*
D10*
X76602000Y-114429000D03*
D11*
X72422000Y-114429000D03*
%TD*%
D12*
%TO.P,H2,1,1_1*%
%TO.N,GND*%
X125476000Y-93726000D03*
D13*
X125476000Y-93726000D03*
%TD*%
D12*
%TO.P,H4,1,1_1*%
%TO.N,GND*%
X73660000Y-126238000D03*
D13*
X73660000Y-126238000D03*
%TD*%
D14*
%TO.P,J2,1,Pin_1_1*%
%TO.N,Net-(D5-K)*%
X125012500Y-112014000D03*
D15*
%TO.P,J2,2,Pin_2_2*%
%TO.N,GND*%
X125012500Y-108204000D03*
%TD*%
D12*
%TO.P,H1,1,1_1*%
%TO.N,GND*%
X73914000Y-93726000D03*
D13*
X73914000Y-93726000D03*
%TD*%
D12*
%TO.P,H3,1,1_1*%
%TO.N,GND*%
X125984000Y-126238000D03*
D13*
X125984000Y-126238000D03*
%TD*%
D16*
%TO.N,GND*%
X94996000Y-118999000D03*
X104521000Y-125476000D03*
X107808355Y-109967355D03*
X86995000Y-109982000D03*
X86995000Y-108712000D03*
X90043000Y-105156000D03*
X115316000Y-106172000D03*
X80772000Y-103124000D03*
X86487000Y-113919000D03*
X85725000Y-125730000D03*
X93726000Y-109093000D03*
%TO.N,Net-(J1-CC2)*%
X78486000Y-116459000D03*
X79629000Y-111125000D03*
%TO.N,Net-(U2-CC2)*%
X78740000Y-118618000D03*
X91567000Y-108712000D03*
%TO.N,CFG2*%
X85725000Y-104140000D03*
X96933000Y-105378000D03*
X103505000Y-115316000D03*
X104648000Y-100838000D03*
%TO.N,CFG3*%
X85725000Y-105156000D03*
X103505000Y-114427000D03*
X104775000Y-103632000D03*
X96774000Y-107442000D03*
%TO.N,/D+*%
X84201000Y-109982000D03*
X78867000Y-110363000D03*
%TO.N,/D-*%
X76005544Y-109859000D03*
X84201000Y-108712000D03*
%TO.N,Net-(U2-CC1)*%
X94107000Y-106299000D03*
X78994000Y-101473000D03*
%TO.N,CFG1*%
X104394000Y-98425000D03*
X93662500Y-102298500D03*
X96774000Y-103378000D03*
X103632000Y-116332000D03*
%TO.N,PG*%
X92837000Y-101981000D03*
X101219000Y-113800000D03*
X96806000Y-101060000D03*
X103124000Y-106680000D03*
%TO.N,Net-(J1-CC1)*%
X78930500Y-103187500D03*
X78740000Y-108585000D03*
%TO.N,Net-(U3-X4)*%
X106045000Y-119761000D03*
X108521500Y-113855500D03*
X112522000Y-113792000D03*
%TO.N,Net-(U3-X3)*%
X115570000Y-120015000D03*
X109093000Y-118491000D03*
%TD*%
%TO.N,Net-(J1-CC2)*%
D17*
X79629000Y-115316000D02*
X79629000Y-111125000D01*
X78486000Y-116459000D02*
X79629000Y-115316000D01*
%TO.N,Net-(U2-CC2)*%
X86960000Y-113319000D02*
X84039000Y-113319000D01*
X91567000Y-108712000D02*
X86960000Y-113319000D01*
X84039000Y-113319000D02*
X78740000Y-118618000D01*
%TO.N,CFG2*%
D18*
X96933000Y-105886000D02*
X96933000Y-105378000D01*
X95377000Y-107442000D02*
X96933000Y-105886000D01*
X105402000Y-101592000D02*
X104648000Y-100838000D01*
D19*
X100108000Y-105378000D02*
X104648000Y-100838000D01*
D18*
X85725000Y-104140000D02*
X89027000Y-107442000D01*
X89027000Y-107442000D02*
X95377000Y-107442000D01*
D19*
X96933000Y-105378000D02*
X100108000Y-105378000D01*
D18*
X103505000Y-115316000D02*
X105402000Y-113419000D01*
X105402000Y-113419000D02*
X105402000Y-101592000D01*
%TO.N,CFG3*%
D19*
X103505000Y-104902000D02*
X104775000Y-103632000D01*
D18*
X96131000Y-108085000D02*
X96774000Y-107442000D01*
X88654000Y-108085000D02*
X96131000Y-108085000D01*
X104521000Y-113411000D02*
X104521000Y-105918000D01*
X103505000Y-114427000D02*
X104521000Y-113411000D01*
D19*
X96774000Y-107442000D02*
X100965000Y-107442000D01*
D18*
X104521000Y-105918000D02*
X103505000Y-104902000D01*
D19*
X100965000Y-107442000D02*
X103505000Y-104902000D01*
D18*
X85725000Y-105156000D02*
X88654000Y-108085000D01*
%TO.N,/D+*%
D20*
X78867000Y-110363000D02*
X78867000Y-110241245D01*
X78867000Y-110241245D02*
X79490957Y-109617288D01*
X79490957Y-109617288D02*
X83836288Y-109617288D01*
X83836288Y-109617288D02*
X84201000Y-109982000D01*
%TO.N,/D-*%
X83836288Y-109076712D02*
X84201000Y-108712000D01*
X79267043Y-109076712D02*
X83836288Y-109076712D01*
X76005544Y-109859000D02*
X78458424Y-109859000D01*
X78626043Y-109717712D02*
X79267043Y-109076712D01*
X78458424Y-109859000D02*
X78599712Y-109717712D01*
X78599712Y-109717712D02*
X78626043Y-109717712D01*
%TO.N,Net-(U2-CC1)*%
D17*
X94107000Y-106299000D02*
X89281000Y-101473000D01*
X89281000Y-101473000D02*
X78994000Y-101473000D01*
%TO.N,CFG1*%
D19*
X96774000Y-103378000D02*
X99441000Y-103378000D01*
D18*
X94488000Y-102235000D02*
X95631000Y-103378000D01*
X106426000Y-113538000D02*
X106426000Y-100457000D01*
X106426000Y-100457000D02*
X104394000Y-98425000D01*
D19*
X99441000Y-103378000D02*
X104394000Y-98425000D01*
D18*
X93726000Y-102235000D02*
X94488000Y-102235000D01*
X103632000Y-116332000D02*
X106426000Y-113538000D01*
X93662500Y-102298500D02*
X93726000Y-102235000D01*
X95631000Y-103378000D02*
X96774000Y-103378000D01*
%TO.N,PG*%
X103124000Y-106680000D02*
X103124000Y-111895000D01*
X92837000Y-101981000D02*
X93758000Y-101060000D01*
X103124000Y-111895000D02*
X101219000Y-113800000D01*
X93758000Y-101060000D02*
X96806000Y-101060000D01*
%TO.N,Net-(J1-CC1)*%
D17*
X78930500Y-108394500D02*
X78930500Y-103187500D01*
X78740000Y-108585000D02*
X78930500Y-108394500D01*
%TO.N,Net-(U3-X4)*%
X106045000Y-116332000D02*
X106045000Y-119761000D01*
X108585000Y-113792000D02*
X108521500Y-113855500D01*
X108521500Y-113855500D02*
X106045000Y-116332000D01*
X112522000Y-113792000D02*
X108585000Y-113792000D01*
%TO.N,Net-(U3-X3)*%
X114046000Y-118491000D02*
X115570000Y-120015000D01*
X109093000Y-118491000D02*
X114046000Y-118491000D01*
%TD*%
M02*
