%TF.GenerationSoftware,KiCad,Pcbnew,10.0.6*%
%TF.CreationDate,2026-09-29T18:21:09+02:00*%
%TF.ProjectId,usb-c-pd-supply,7573622d-632d-4706-942d-737570706c79,rev?*%
%TF.SameCoordinates,Original*%
%TF.FileFunction,Soldermask,Top*%
%TF.FilePolarity,Negative*%
%FSLAX46Y46*%
G04 Gerber Fmt 4.6, Leading zero omitted, Abs format (unit mm)*
G04 Created by KiCad (PCBNEW 10.0.6) date 2026-09-29 18:21:09*
%MOMM*%
%LPD*%
G01*
G04 APERTURE LIST*
G04 Aperture macros list*
%AMRoundRect*
0 Rectangle with rounded corners*
0 $1 Rounding radius*
0 $2 $3 $4 $5 $6 $7 $8 $9 X,Y pos of 4 corners*
0 Add a 4 corners polygon primitive as box body*
4,1,4,$2,$3,$4,$5,$6,$7,$8,$9,$2,$3,0*
0 Add four circle primitives for the rounded corners*
1,1,$1+$1,$2,$3*
1,1,$1+$1,$4,$5*
1,1,$1+$1,$6,$7*
1,1,$1+$1,$8,$9*
0 Add four rect primitives between the rounded corners*
20,1,$1+$1,$2,$3,$4,$5,0*
20,1,$1+$1,$4,$5,$6,$7,0*
20,1,$1+$1,$6,$7,$8,$9,0*
20,1,$1+$1,$8,$9,$2,$3,0*%
G04 Aperture macros list end*
%ADD10RoundRect,0.250000X0.262500X0.450000X-0.262500X0.450000X-0.262500X-0.450000X0.262500X-0.450000X0*%
%ADD11RoundRect,0.146250X-0.560750X-0.250750X0.560750X-0.250750X0.560750X0.250750X-0.560750X0.250750X0*%
%ADD12RoundRect,0.250000X-0.450000X0.262500X-0.450000X-0.262500X0.450000X-0.262500X0.450000X0.262500X0*%
%ADD13RoundRect,0.150000X-0.687500X-0.150000X0.687500X-0.150000X0.687500X0.150000X-0.687500X0.150000X0*%
%ADD14R,2.100000X3.300000*%
%ADD15RoundRect,0.150000X0.150000X-0.587500X0.150000X0.587500X-0.150000X0.587500X-0.150000X-0.587500X0*%
%ADD16RoundRect,0.250000X1.000000X0.650000X-1.000000X0.650000X-1.000000X-0.650000X1.000000X-0.650000X0*%
%ADD17RoundRect,0.225000X-0.250000X0.225000X-0.250000X-0.225000X0.250000X-0.225000X0.250000X0.225000X0*%
%ADD18RoundRect,0.112500X0.187500X0.112500X-0.187500X0.112500X-0.187500X-0.112500X0.187500X-0.112500X0*%
%ADD19C,0.650000*%
%ADD20RoundRect,0.150000X-0.425000X0.150000X-0.425000X-0.150000X0.425000X-0.150000X0.425000X0.150000X0*%
%ADD21RoundRect,0.075000X-0.500000X0.075000X-0.500000X-0.075000X0.500000X-0.075000X0.500000X0.075000X0*%
%ADD22O,2.100000X1.000000*%
%ADD23O,1.800000X1.000000*%
%ADD24RoundRect,0.250000X0.450000X-0.262500X0.450000X0.262500X-0.450000X0.262500X-0.450000X-0.262500X0*%
%ADD25RoundRect,0.243750X0.243750X0.456250X-0.243750X0.456250X-0.243750X-0.456250X0.243750X-0.456250X0*%
%ADD26RoundRect,0.225000X0.225000X0.250000X-0.225000X0.250000X-0.225000X-0.250000X0.225000X-0.250000X0*%
%ADD27C,2.600000*%
%ADD28C,3.800000*%
%ADD29RoundRect,0.250000X-0.970000X-0.310000X0.970000X-0.310000X0.970000X0.310000X-0.970000X0.310000X0*%
%ADD30RoundRect,0.173250X-0.213750X0.913750X-0.213750X-0.913750X0.213750X-0.913750X0.213750X0.913750X0*%
%ADD31RoundRect,0.150000X-0.587500X-0.150000X0.587500X-0.150000X0.587500X0.150000X-0.587500X0.150000X0*%
%ADD32RoundRect,0.250000X-0.312500X-1.075000X0.312500X-1.075000X0.312500X1.075000X-0.312500X1.075000X0*%
%ADD33RoundRect,0.243750X0.456250X-0.243750X0.456250X0.243750X-0.456250X0.243750X-0.456250X-0.243750X0*%
%ADD34RoundRect,0.250000X0.750000X-0.750000X0.750000X0.750000X-0.750000X0.750000X-0.750000X-0.750000X0*%
%ADD35C,2.000000*%
%ADD36RoundRect,0.250000X1.075000X-0.312500X1.075000X0.312500X-1.075000X0.312500X-1.075000X-0.312500X0*%
%ADD37RoundRect,0.055000X0.055000X0.095000X-0.055000X0.095000X-0.055000X-0.095000X0.055000X-0.095000X0*%
G04 APERTURE END LIST*
D10*
%TO.C,R9*%
X120165500Y-121539000D03*
X118340500Y-121539000D03*
%TD*%
D11*
%TO.C,U1*%
X83327000Y-122621000D03*
X83327000Y-123571000D03*
X83327000Y-124521000D03*
X85837000Y-124521000D03*
X85837000Y-122621000D03*
%TD*%
D12*
%TO.C,R2*%
X77216000Y-116816500D03*
X77216000Y-118641500D03*
%TD*%
D13*
%TO.C,U2*%
X87405500Y-103156000D03*
X87405500Y-104156000D03*
X87405500Y-105156000D03*
X87405500Y-106156000D03*
X87405500Y-107156000D03*
X92680500Y-107156000D03*
X92680500Y-106156000D03*
X92680500Y-105156000D03*
X92680500Y-104156000D03*
X92680500Y-103156000D03*
D14*
X90043000Y-105156000D03*
%TD*%
D15*
%TO.C,Q2*%
X122113000Y-99235500D03*
X124013000Y-99235500D03*
X123063000Y-97360500D03*
%TD*%
D10*
%TO.C,R12*%
X109013000Y-121539000D03*
X107188000Y-121539000D03*
%TD*%
D16*
%TO.C,D1*%
X84423000Y-113792000D03*
X80423000Y-113792000D03*
%TD*%
D17*
%TO.C,C3*%
X88138000Y-122796000D03*
X88138000Y-124346000D03*
%TD*%
D18*
%TO.C,D5*%
X124113000Y-101854000D03*
X122013000Y-101854000D03*
%TD*%
D19*
%TO.C,J1*%
X76102000Y-107219000D03*
X76102000Y-112999000D03*
D20*
X77177000Y-106909000D03*
X77177000Y-107709000D03*
D21*
X77177000Y-108859000D03*
X77177000Y-109859000D03*
X77177000Y-110359000D03*
X77177000Y-111359000D03*
D20*
X77177000Y-112509000D03*
X77177000Y-113309000D03*
X77177000Y-113309000D03*
X77177000Y-112509000D03*
D21*
X77177000Y-111859000D03*
X77177000Y-110859000D03*
X77177000Y-109359000D03*
X77177000Y-108359000D03*
D20*
X77177000Y-107709000D03*
X77177000Y-106909000D03*
D22*
X76602000Y-105789000D03*
D23*
X72422000Y-105789000D03*
D22*
X76602000Y-114429000D03*
D23*
X72422000Y-114429000D03*
%TD*%
D24*
%TO.C,R1*%
X77343000Y-103378000D03*
X77343000Y-101553000D03*
%TD*%
D10*
%TO.C,R6*%
X99898500Y-107537000D03*
X98073500Y-107537000D03*
%TD*%
D25*
%TO.C,D9*%
X109086500Y-123825000D03*
X107211500Y-123825000D03*
%TD*%
D17*
%TO.C,C6*%
X95430000Y-105492000D03*
X95430000Y-107042000D03*
%TD*%
D26*
%TO.C,C7*%
X111011000Y-109368500D03*
X109461000Y-109368500D03*
%TD*%
D27*
%TO.C,H2*%
X125476000Y-93726000D03*
D28*
X125476000Y-93726000D03*
%TD*%
D10*
%TO.C,R5*%
X99922000Y-105378000D03*
X98097000Y-105378000D03*
%TD*%
D17*
%TO.C,C5*%
X92202000Y-122809000D03*
X92202000Y-124359000D03*
%TD*%
D29*
%TO.C,SW1*%
X106693000Y-98044000D03*
X106693000Y-100584000D03*
X106693000Y-103124000D03*
X115303000Y-103124000D03*
X115303000Y-100584000D03*
X115303000Y-98044000D03*
%TD*%
D24*
%TO.C,R8*%
X119253000Y-101877500D03*
X119253000Y-100052500D03*
%TD*%
D30*
%TO.C,U3*%
X113919000Y-112079000D03*
X112649000Y-112079000D03*
X111379000Y-112079000D03*
X110109000Y-112079000D03*
X108839000Y-112079000D03*
X107569000Y-112079000D03*
X106299000Y-112079000D03*
X105029000Y-112079000D03*
X105029000Y-117029000D03*
X106299000Y-117029000D03*
X107569000Y-117029000D03*
X108839000Y-117029000D03*
X110109000Y-117029000D03*
X111379000Y-117029000D03*
X112649000Y-117029000D03*
X113919000Y-117029000D03*
%TD*%
D10*
%TO.C,R10*%
X116482500Y-121539000D03*
X114657500Y-121539000D03*
%TD*%
D31*
%TO.C,Q1*%
X96471500Y-117033000D03*
X96471500Y-118933000D03*
X98346500Y-117983000D03*
%TD*%
D27*
%TO.C,H4*%
X73660000Y-126238000D03*
D28*
X73660000Y-126238000D03*
%TD*%
D17*
%TO.C,C1*%
X80645000Y-122923000D03*
X80645000Y-124473000D03*
%TD*%
D32*
%TO.C,C8*%
X123505500Y-116459000D03*
X126430500Y-116459000D03*
%TD*%
D33*
%TO.C,D4*%
X99187000Y-124102500D03*
X99187000Y-122227500D03*
%TD*%
D34*
%TO.C,J2*%
X125012500Y-112014000D03*
D35*
X125012500Y-108204000D03*
%TD*%
D10*
%TO.C,R3*%
X99922000Y-101060000D03*
X98097000Y-101060000D03*
%TD*%
D27*
%TO.C,H1*%
X73914000Y-93726000D03*
D28*
X73914000Y-93726000D03*
%TD*%
D36*
%TO.C,C2*%
X80772000Y-107253500D03*
X80772000Y-104328500D03*
%TD*%
D10*
%TO.C,R4*%
X99922000Y-103219000D03*
X98097000Y-103219000D03*
%TD*%
D17*
%TO.C,C4*%
X90170000Y-122796000D03*
X90170000Y-124346000D03*
%TD*%
D37*
%TO.C,D3*%
X86106000Y-109982000D03*
X85736000Y-109982000D03*
%TD*%
D27*
%TO.C,H3*%
X125984000Y-126238000D03*
D28*
X125984000Y-126238000D03*
%TD*%
D25*
%TO.C,D10*%
X105403500Y-123825000D03*
X103528500Y-123825000D03*
%TD*%
D10*
%TO.C,R11*%
X112696000Y-121539000D03*
X110871000Y-121539000D03*
%TD*%
%TO.C,R13*%
X105398500Y-121539000D03*
X103573500Y-121539000D03*
%TD*%
D25*
%TO.C,D8*%
X112721000Y-123825000D03*
X110846000Y-123825000D03*
%TD*%
D37*
%TO.C,D2*%
X86095000Y-108712000D03*
X85725000Y-108712000D03*
%TD*%
D24*
%TO.C,R7*%
X95631000Y-124229500D03*
X95631000Y-122404500D03*
%TD*%
D25*
%TO.C,D7*%
X116429000Y-123825000D03*
X114554000Y-123825000D03*
%TD*%
%TO.C,D6*%
X120135500Y-123825000D03*
X118260500Y-123825000D03*
%TD*%
M02*
