%TF.GenerationSoftware,KiCad,Pcbnew,10.0.6*%
%TF.CreationDate,2026-09-29T18:21:09+02:00*%
%TF.ProjectId,usb-c-pd-supply,7573622d-632d-4706-942d-737570706c79,rev?*%
%TF.SameCoordinates,Original*%
%TF.FileFunction,Copper,L2,Inr*%
%TF.FilePolarity,Positive*%
%FSLAX46Y46*%
G04 Gerber Fmt 4.6, Leading zero omitted, Abs format (unit mm)*
G04 Created by KiCad (PCBNEW 10.0.6) date 2026-09-29 18:21:09*
%MOMM*%
%LPD*%
G01*
G04 APERTURE LIST*
G04 Aperture macros list*
%AMRoundRect*
0 Rectangle with rounded corners*
0 $1 Rounding radius*
0 $2 $3 $4 $5 $6 $7 $8 $9 X,Y pos of 4 corners*
0 Add a 4 corners polygon primitive as box body*
4,1,4,$2,$3,$4,$5,$6,$7,$8,$9,$2,$3,0*
0 Add four circle primitives for the rounded corners*
1,1,$1+$1,$2,$3*
1,1,$1+$1,$4,$5*
1,1,$1+$1,$6,$7*
1,1,$1+$1,$8,$9*
0 Add four rect primitives between the rounded corners*
20,1,$1+$1,$2,$3,$4,$5,0*
20,1,$1+$1,$4,$5,$6,$7,0*
20,1,$1+$1,$6,$7,$8,$9,0*
20,1,$1+$1,$8,$9,$2,$3,0*%
G04 Aperture macros list end*
%TA.AperFunction,ComponentPad*%
%ADD10O,2.100000X1.000000*%
%TD*%
%TA.AperFunction,ComponentPad*%
%ADD11O,1.800000X1.000000*%
%TD*%
%TA.AperFunction,ComponentPad*%
%ADD12C,2.600000*%
%TD*%
%TA.AperFunction,ComponentPad*%
%ADD13RoundRect,0.250000X0.750000X-0.750000X0.750000X0.750000X-0.750000X0.750000X-0.750000X-0.750000X0*%
%TD*%
%TA.AperFunction,ComponentPad*%
%ADD14C,2.000000*%
%TD*%
%TA.AperFunction,ViaPad*%
%ADD15C,0.600000*%
%TD*%
G04 APERTURE END LIST*
D10*
%TO.N,GND*%
%TO.C,J1*%
X76602000Y-105789000D03*
D11*
X72422000Y-105789000D03*
D10*
X76602000Y-114429000D03*
D11*
X72422000Y-114429000D03*
%TD*%
D12*
%TO.N,GND*%
%TO.C,H2*%
X125476000Y-93726000D03*
%TD*%
%TO.N,GND*%
%TO.C,H4*%
X73660000Y-126238000D03*
%TD*%
D13*
%TO.N,Net-(D5-K)*%
%TO.C,J2*%
X125012500Y-112014000D03*
D14*
%TO.N,GND*%
X125012500Y-108204000D03*
%TD*%
D12*
%TO.N,GND*%
%TO.C,H1*%
X73914000Y-93726000D03*
%TD*%
%TO.N,GND*%
%TO.C,H3*%
X125984000Y-126238000D03*
%TD*%
D15*
%TO.N,GND*%
X94996000Y-118999000D03*
X104521000Y-125476000D03*
X107808355Y-109967355D03*
X86995000Y-109982000D03*
X86995000Y-108712000D03*
X90043000Y-105156000D03*
X115316000Y-106172000D03*
X80772000Y-103124000D03*
X86487000Y-113919000D03*
X85725000Y-125730000D03*
X93726000Y-109093000D03*
%TO.N,Net-(J1-CC2)*%
X78486000Y-116459000D03*
X79629000Y-111125000D03*
%TO.N,Net-(U2-CC2)*%
X78740000Y-118618000D03*
X91567000Y-108712000D03*
%TO.N,CFG2*%
X85725000Y-104140000D03*
X96933000Y-105378000D03*
X103505000Y-115316000D03*
X104648000Y-100838000D03*
%TO.N,CFG3*%
X85725000Y-105156000D03*
X103505000Y-114427000D03*
X104775000Y-103632000D03*
X96774000Y-107442000D03*
%TO.N,/D+*%
X84201000Y-109982000D03*
X78867000Y-110363000D03*
%TO.N,/D-*%
X76005544Y-109859000D03*
X84201000Y-108712000D03*
%TO.N,Net-(U2-CC1)*%
X94107000Y-106299000D03*
X78994000Y-101473000D03*
%TO.N,CFG1*%
X104394000Y-98425000D03*
X93662500Y-102298500D03*
X96774000Y-103378000D03*
X103632000Y-116332000D03*
%TO.N,PG*%
X92837000Y-101981000D03*
X101219000Y-113800000D03*
X96806000Y-101060000D03*
X103124000Y-106680000D03*
%TO.N,Net-(J1-CC1)*%
X78930500Y-103187500D03*
X78740000Y-108585000D03*
%TO.N,Net-(U3-X4)*%
X106045000Y-119761000D03*
X108521500Y-113855500D03*
X112522000Y-113792000D03*
%TO.N,Net-(U3-X3)*%
X115570000Y-120015000D03*
X109093000Y-118491000D03*
%TD*%
%TA.AperFunction,Conductor*%
%TO.N,GND*%
G36*
X125825033Y-90198649D02*
G01*
X126193235Y-90216737D01*
X126205343Y-90217929D01*
X126566984Y-90271574D01*
X126578898Y-90273944D01*
X126933549Y-90362779D01*
X126945191Y-90366312D01*
X127055446Y-90405761D01*
X127289402Y-90489472D01*
X127300631Y-90494123D01*
X127631152Y-90650447D01*
X127641860Y-90656171D01*
X127955438Y-90844123D01*
X127965556Y-90850883D01*
X128259203Y-91068666D01*
X128268610Y-91076386D01*
X128539493Y-91321902D01*
X128548097Y-91330506D01*
X128793613Y-91601389D01*
X128801333Y-91610796D01*
X129019116Y-91904443D01*
X129025876Y-91914561D01*
X129213821Y-92228127D01*
X129219558Y-92238859D01*
X129375873Y-92569361D01*
X129380529Y-92580604D01*
X129503687Y-92924808D01*
X129507220Y-92936452D01*
X129596052Y-93291088D01*
X129598426Y-93303023D01*
X129652069Y-93664655D01*
X129653262Y-93676765D01*
X129671351Y-94044965D01*
X129671500Y-94051050D01*
X129671500Y-126044949D01*
X129671351Y-126051034D01*
X129653262Y-126419234D01*
X129652069Y-126431344D01*
X129598426Y-126792976D01*
X129596052Y-126804911D01*
X129507220Y-127159547D01*
X129503687Y-127171191D01*
X129380529Y-127515395D01*
X129375873Y-127526638D01*
X129219558Y-127857140D01*
X129213821Y-127867872D01*
X129025876Y-128181438D01*
X129019116Y-128191556D01*
X128801333Y-128485203D01*
X128793613Y-128494610D01*
X128548097Y-128765493D01*
X128539493Y-128774097D01*
X128268610Y-129019613D01*
X128259203Y-129027333D01*
X127965556Y-129245116D01*
X127955438Y-129251876D01*
X127641872Y-129439821D01*
X127631140Y-129445558D01*
X127300638Y-129601873D01*
X127289395Y-129606529D01*
X126945191Y-129729687D01*
X126933547Y-129733220D01*
X126578911Y-129822052D01*
X126566976Y-129824426D01*
X126205344Y-129878069D01*
X126193234Y-129879262D01*
X125844985Y-129896370D01*
X125825032Y-129897351D01*
X125818949Y-129897500D01*
X73825051Y-129897500D01*
X73818967Y-129897351D01*
X73797834Y-129896312D01*
X73450765Y-129879262D01*
X73438655Y-129878069D01*
X73077023Y-129824426D01*
X73065088Y-129822052D01*
X72710452Y-129733220D01*
X72698808Y-129729687D01*
X72354604Y-129606529D01*
X72343361Y-129601873D01*
X72012859Y-129445558D01*
X72002132Y-129439823D01*
X71688561Y-129251876D01*
X71678443Y-129245116D01*
X71384796Y-129027333D01*
X71375389Y-129019613D01*
X71104506Y-128774097D01*
X71095902Y-128765493D01*
X70850386Y-128494610D01*
X70842666Y-128485203D01*
X70624883Y-128191556D01*
X70618123Y-128181438D01*
X70551215Y-128069809D01*
X70430171Y-127867860D01*
X70424447Y-127857152D01*
X70268123Y-127526631D01*
X70263470Y-127515395D01*
X70140312Y-127171191D01*
X70136779Y-127159547D01*
X70096633Y-126999274D01*
X70047944Y-126804898D01*
X70045573Y-126792976D01*
X69991930Y-126431344D01*
X69990737Y-126419233D01*
X69972649Y-126051033D01*
X69972500Y-126044949D01*
X69972500Y-119682153D01*
X105244500Y-119682153D01*
X105244500Y-119839846D01*
X105275261Y-119994489D01*
X105275264Y-119994501D01*
X105335602Y-120140172D01*
X105335609Y-120140185D01*
X105423210Y-120271288D01*
X105423213Y-120271292D01*
X105534707Y-120382786D01*
X105534711Y-120382789D01*
X105665814Y-120470390D01*
X105665827Y-120470397D01*
X105811498Y-120530735D01*
X105811503Y-120530737D01*
X105966153Y-120561499D01*
X105966156Y-120561500D01*
X105966158Y-120561500D01*
X106123844Y-120561500D01*
X106123845Y-120561499D01*
X106278497Y-120530737D01*
X106424179Y-120470394D01*
X106555289Y-120382789D01*
X106666789Y-120271289D01*
X106754394Y-120140179D01*
X106814737Y-119994497D01*
X106818687Y-119974638D01*
X106826343Y-119936153D01*
X114769500Y-119936153D01*
X114769500Y-120093846D01*
X114800261Y-120248489D01*
X114800264Y-120248501D01*
X114860602Y-120394172D01*
X114860609Y-120394185D01*
X114948210Y-120525288D01*
X114948213Y-120525292D01*
X115059707Y-120636786D01*
X115059711Y-120636789D01*
X115190814Y-120724390D01*
X115190827Y-120724397D01*
X115336498Y-120784735D01*
X115336503Y-120784737D01*
X115491153Y-120815499D01*
X115491156Y-120815500D01*
X115491158Y-120815500D01*
X115648844Y-120815500D01*
X115648845Y-120815499D01*
X115803497Y-120784737D01*
X115949179Y-120724394D01*
X116080289Y-120636789D01*
X116191789Y-120525289D01*
X116279394Y-120394179D01*
X116339737Y-120248497D01*
X116370500Y-120093842D01*
X116370500Y-119936158D01*
X116370500Y-119936155D01*
X116370499Y-119936153D01*
X116339738Y-119781510D01*
X116339737Y-119781503D01*
X116339735Y-119781498D01*
X116279397Y-119635827D01*
X116279390Y-119635814D01*
X116191789Y-119504711D01*
X116191786Y-119504707D01*
X116080292Y-119393213D01*
X116080288Y-119393210D01*
X115949185Y-119305609D01*
X115949172Y-119305602D01*
X115803501Y-119245264D01*
X115803489Y-119245261D01*
X115648845Y-119214500D01*
X115648842Y-119214500D01*
X115491158Y-119214500D01*
X115491155Y-119214500D01*
X115336510Y-119245261D01*
X115336498Y-119245264D01*
X115190827Y-119305602D01*
X115190814Y-119305609D01*
X115059711Y-119393210D01*
X115059707Y-119393213D01*
X114948213Y-119504707D01*
X114948210Y-119504711D01*
X114860609Y-119635814D01*
X114860602Y-119635827D01*
X114800264Y-119781498D01*
X114800261Y-119781510D01*
X114769500Y-119936153D01*
X106826343Y-119936153D01*
X106832366Y-119905874D01*
X106832366Y-119905873D01*
X106845499Y-119839846D01*
X106845500Y-119839844D01*
X106845500Y-119682155D01*
X106845499Y-119682153D01*
X106836283Y-119635821D01*
X106814737Y-119527503D01*
X106769587Y-119418500D01*
X106754397Y-119381827D01*
X106754390Y-119381814D01*
X106666789Y-119250711D01*
X106666786Y-119250707D01*
X106555292Y-119139213D01*
X106555288Y-119139210D01*
X106424185Y-119051609D01*
X106424172Y-119051602D01*
X106278501Y-118991264D01*
X106278489Y-118991261D01*
X106123845Y-118960500D01*
X106123842Y-118960500D01*
X105966158Y-118960500D01*
X105966155Y-118960500D01*
X105811510Y-118991261D01*
X105811498Y-118991264D01*
X105665827Y-119051602D01*
X105665814Y-119051609D01*
X105534711Y-119139210D01*
X105534707Y-119139213D01*
X105423213Y-119250707D01*
X105423210Y-119250711D01*
X105335609Y-119381814D01*
X105335602Y-119381827D01*
X105275264Y-119527498D01*
X105275261Y-119527510D01*
X105244500Y-119682153D01*
X69972500Y-119682153D01*
X69972500Y-118539153D01*
X77939500Y-118539153D01*
X77939500Y-118696846D01*
X77970261Y-118851489D01*
X77970264Y-118851501D01*
X78030602Y-118997172D01*
X78030609Y-118997185D01*
X78118210Y-119128288D01*
X78118213Y-119128292D01*
X78229707Y-119239786D01*
X78229711Y-119239789D01*
X78360814Y-119327390D01*
X78360827Y-119327397D01*
X78492220Y-119381821D01*
X78506503Y-119387737D01*
X78661153Y-119418499D01*
X78661156Y-119418500D01*
X78661158Y-119418500D01*
X78818844Y-119418500D01*
X78818845Y-119418499D01*
X78973497Y-119387737D01*
X79119179Y-119327394D01*
X79250289Y-119239789D01*
X79361789Y-119128289D01*
X79449394Y-118997179D01*
X79451845Y-118991263D01*
X79501996Y-118870185D01*
X79509737Y-118851497D01*
X79540500Y-118696842D01*
X79540500Y-118539158D01*
X79540500Y-118539155D01*
X79540499Y-118539153D01*
X79518839Y-118430257D01*
X79515238Y-118412153D01*
X108292500Y-118412153D01*
X108292500Y-118569846D01*
X108323261Y-118724489D01*
X108323264Y-118724501D01*
X108383602Y-118870172D01*
X108383609Y-118870185D01*
X108471210Y-119001288D01*
X108471213Y-119001292D01*
X108582707Y-119112786D01*
X108582711Y-119112789D01*
X108713814Y-119200390D01*
X108713827Y-119200397D01*
X108835288Y-119250707D01*
X108859503Y-119260737D01*
X109014153Y-119291499D01*
X109014156Y-119291500D01*
X109014158Y-119291500D01*
X109171844Y-119291500D01*
X109171845Y-119291499D01*
X109326497Y-119260737D01*
X109472179Y-119200394D01*
X109603289Y-119112789D01*
X109714789Y-119001289D01*
X109802394Y-118870179D01*
X109862737Y-118724497D01*
X109893500Y-118569842D01*
X109893500Y-118412158D01*
X109893500Y-118412155D01*
X109893499Y-118412153D01*
X109862738Y-118257510D01*
X109862737Y-118257503D01*
X109854996Y-118238814D01*
X109802397Y-118111827D01*
X109802390Y-118111814D01*
X109714789Y-117980711D01*
X109714786Y-117980707D01*
X109603292Y-117869213D01*
X109603288Y-117869210D01*
X109472185Y-117781609D01*
X109472172Y-117781602D01*
X109326501Y-117721264D01*
X109326489Y-117721261D01*
X109171845Y-117690500D01*
X109171842Y-117690500D01*
X109014158Y-117690500D01*
X109014155Y-117690500D01*
X108859510Y-117721261D01*
X108859498Y-117721264D01*
X108713827Y-117781602D01*
X108713814Y-117781609D01*
X108582711Y-117869210D01*
X108582707Y-117869213D01*
X108471213Y-117980707D01*
X108471210Y-117980711D01*
X108383609Y-118111814D01*
X108383602Y-118111827D01*
X108323264Y-118257498D01*
X108323261Y-118257510D01*
X108292500Y-118412153D01*
X79515238Y-118412153D01*
X79509738Y-118384508D01*
X79509737Y-118384507D01*
X79509737Y-118384503D01*
X79509735Y-118384498D01*
X79449397Y-118238827D01*
X79449390Y-118238814D01*
X79361789Y-118107711D01*
X79361786Y-118107707D01*
X79250292Y-117996213D01*
X79250288Y-117996210D01*
X79119185Y-117908609D01*
X79119172Y-117908602D01*
X78973501Y-117848264D01*
X78973489Y-117848261D01*
X78818845Y-117817500D01*
X78818842Y-117817500D01*
X78661158Y-117817500D01*
X78661155Y-117817500D01*
X78506510Y-117848261D01*
X78506498Y-117848264D01*
X78360827Y-117908602D01*
X78360814Y-117908609D01*
X78229711Y-117996210D01*
X78229707Y-117996213D01*
X78118213Y-118107707D01*
X78118210Y-118107711D01*
X78030609Y-118238814D01*
X78030602Y-118238827D01*
X77970264Y-118384498D01*
X77970261Y-118384510D01*
X77939500Y-118539153D01*
X69972500Y-118539153D01*
X69972500Y-116380153D01*
X77685500Y-116380153D01*
X77685500Y-116537846D01*
X77716261Y-116692489D01*
X77716264Y-116692501D01*
X77776602Y-116838172D01*
X77776609Y-116838185D01*
X77864210Y-116969288D01*
X77864213Y-116969292D01*
X77975707Y-117080786D01*
X77975711Y-117080789D01*
X78106814Y-117168390D01*
X78106827Y-117168397D01*
X78252498Y-117228735D01*
X78252503Y-117228737D01*
X78407153Y-117259499D01*
X78407156Y-117259500D01*
X78407158Y-117259500D01*
X78564844Y-117259500D01*
X78564845Y-117259499D01*
X78719497Y-117228737D01*
X78865179Y-117168394D01*
X78996289Y-117080789D01*
X79107789Y-116969289D01*
X79195394Y-116838179D01*
X79255737Y-116692497D01*
X79286500Y-116537842D01*
X79286500Y-116380158D01*
X79286500Y-116380155D01*
X79286499Y-116380153D01*
X79255738Y-116225510D01*
X79255737Y-116225503D01*
X79255735Y-116225498D01*
X79195397Y-116079827D01*
X79195390Y-116079814D01*
X79107789Y-115948711D01*
X79107786Y-115948707D01*
X78996292Y-115837213D01*
X78996288Y-115837210D01*
X78865185Y-115749609D01*
X78865172Y-115749602D01*
X78719501Y-115689264D01*
X78719489Y-115689261D01*
X78564845Y-115658500D01*
X78564842Y-115658500D01*
X78407158Y-115658500D01*
X78407155Y-115658500D01*
X78252510Y-115689261D01*
X78252498Y-115689264D01*
X78106827Y-115749602D01*
X78106814Y-115749609D01*
X77975711Y-115837210D01*
X77975707Y-115837213D01*
X77864213Y-115948707D01*
X77864210Y-115948711D01*
X77776609Y-116079814D01*
X77776602Y-116079827D01*
X77716264Y-116225498D01*
X77716261Y-116225510D01*
X77685500Y-116380153D01*
X69972500Y-116380153D01*
X69972500Y-114179000D01*
X71052138Y-114179000D01*
X71855012Y-114179000D01*
X71837795Y-114188940D01*
X71781940Y-114244795D01*
X71742444Y-114313204D01*
X71722000Y-114389504D01*
X71722000Y-114468496D01*
X71742444Y-114544796D01*
X71781940Y-114613205D01*
X71837795Y-114669060D01*
X71855012Y-114679000D01*
X71052138Y-114679000D01*
X71060430Y-114720690D01*
X71060430Y-114720692D01*
X71135807Y-114902671D01*
X71135814Y-114902684D01*
X71245248Y-115066462D01*
X71245251Y-115066466D01*
X71384533Y-115205748D01*
X71384537Y-115205751D01*
X71548315Y-115315185D01*
X71548328Y-115315192D01*
X71730306Y-115390569D01*
X71730318Y-115390572D01*
X71923504Y-115428999D01*
X71923508Y-115429000D01*
X72172000Y-115429000D01*
X72172000Y-114729000D01*
X72672000Y-114729000D01*
X72672000Y-115429000D01*
X72920492Y-115429000D01*
X72920495Y-115428999D01*
X73113681Y-115390572D01*
X73113693Y-115390569D01*
X73295671Y-115315192D01*
X73295684Y-115315185D01*
X73459462Y-115205751D01*
X73459466Y-115205748D01*
X73598748Y-115066466D01*
X73598751Y-115066462D01*
X73708185Y-114902684D01*
X73708192Y-114902671D01*
X73783569Y-114720692D01*
X73783569Y-114720690D01*
X73791862Y-114679000D01*
X72988988Y-114679000D01*
X73006205Y-114669060D01*
X73062060Y-114613205D01*
X73101556Y-114544796D01*
X73122000Y-114468496D01*
X73122000Y-114389504D01*
X73101556Y-114313204D01*
X73062060Y-114244795D01*
X73006205Y-114188940D01*
X72988988Y-114179000D01*
X73791862Y-114179000D01*
X75082138Y-114179000D01*
X75885012Y-114179000D01*
X75867795Y-114188940D01*
X75811940Y-114244795D01*
X75772444Y-114313204D01*
X75752000Y-114389504D01*
X75752000Y-114468496D01*
X75772444Y-114544796D01*
X75811940Y-114613205D01*
X75867795Y-114669060D01*
X75885012Y-114679000D01*
X75082138Y-114679000D01*
X75090430Y-114720690D01*
X75090430Y-114720692D01*
X75165807Y-114902671D01*
X75165814Y-114902684D01*
X75275248Y-115066462D01*
X75275251Y-115066466D01*
X75414533Y-115205748D01*
X75414537Y-115205751D01*
X75578315Y-115315185D01*
X75578328Y-115315192D01*
X75760306Y-115390569D01*
X75760318Y-115390572D01*
X75953504Y-115428999D01*
X75953508Y-115429000D01*
X76352000Y-115429000D01*
X76352000Y-114729000D01*
X76852000Y-114729000D01*
X76852000Y-115429000D01*
X77250492Y-115429000D01*
X77250495Y-115428999D01*
X77443681Y-115390572D01*
X77443693Y-115390569D01*
X77625671Y-115315192D01*
X77625684Y-115315185D01*
X77789462Y-115205751D01*
X77789466Y-115205748D01*
X77928748Y-115066466D01*
X77928751Y-115066462D01*
X78038185Y-114902684D01*
X78038192Y-114902671D01*
X78113569Y-114720692D01*
X78113569Y-114720690D01*
X78121862Y-114679000D01*
X77318988Y-114679000D01*
X77336205Y-114669060D01*
X77392060Y-114613205D01*
X77431556Y-114544796D01*
X77452000Y-114468496D01*
X77452000Y-114389504D01*
X77431556Y-114313204D01*
X77392060Y-114244795D01*
X77336205Y-114188940D01*
X77318988Y-114179000D01*
X78121862Y-114179000D01*
X78113569Y-114137309D01*
X78113569Y-114137307D01*
X78038192Y-113955328D01*
X78038185Y-113955315D01*
X77928751Y-113791537D01*
X77928748Y-113791533D01*
X77858368Y-113721153D01*
X100418500Y-113721153D01*
X100418500Y-113878846D01*
X100449261Y-114033489D01*
X100449264Y-114033501D01*
X100509602Y-114179172D01*
X100509609Y-114179185D01*
X100597210Y-114310288D01*
X100597213Y-114310292D01*
X100708707Y-114421786D01*
X100708711Y-114421789D01*
X100839814Y-114509390D01*
X100839827Y-114509397D01*
X100973801Y-114564890D01*
X100985503Y-114569737D01*
X101099935Y-114592499D01*
X101140153Y-114600499D01*
X101140156Y-114600500D01*
X101140158Y-114600500D01*
X101297844Y-114600500D01*
X101297845Y-114600499D01*
X101452497Y-114569737D01*
X101598179Y-114509394D01*
X101729289Y-114421789D01*
X101802925Y-114348153D01*
X102704500Y-114348153D01*
X102704500Y-114505846D01*
X102735261Y-114660489D01*
X102735264Y-114660501D01*
X102795604Y-114806177D01*
X102798476Y-114811549D01*
X102796377Y-114812670D01*
X102814099Y-114869321D01*
X102797219Y-114930779D01*
X102798476Y-114931451D01*
X102795604Y-114936822D01*
X102735264Y-115082498D01*
X102735261Y-115082510D01*
X102704500Y-115237153D01*
X102704500Y-115394846D01*
X102735261Y-115549489D01*
X102735264Y-115549501D01*
X102795602Y-115695172D01*
X102795609Y-115695185D01*
X102883210Y-115826288D01*
X102883213Y-115826292D01*
X102889540Y-115832619D01*
X102923025Y-115893942D01*
X102918041Y-115963634D01*
X102916421Y-115967752D01*
X102862263Y-116098503D01*
X102862262Y-116098506D01*
X102862262Y-116098507D01*
X102862261Y-116098510D01*
X102831500Y-116253153D01*
X102831500Y-116410846D01*
X102862261Y-116565489D01*
X102862264Y-116565501D01*
X102922602Y-116711172D01*
X102922609Y-116711185D01*
X103010210Y-116842288D01*
X103010213Y-116842292D01*
X103121707Y-116953786D01*
X103121711Y-116953789D01*
X103252814Y-117041390D01*
X103252827Y-117041397D01*
X103398498Y-117101735D01*
X103398503Y-117101737D01*
X103553153Y-117132499D01*
X103553156Y-117132500D01*
X103553158Y-117132500D01*
X103710844Y-117132500D01*
X103710845Y-117132499D01*
X103865497Y-117101737D01*
X104011179Y-117041394D01*
X104142289Y-116953789D01*
X104253789Y-116842289D01*
X104341394Y-116711179D01*
X104401737Y-116565497D01*
X104432500Y-116410842D01*
X104432500Y-116253158D01*
X104432500Y-116253155D01*
X104432499Y-116253153D01*
X104401738Y-116098510D01*
X104401737Y-116098503D01*
X104345873Y-115963634D01*
X104341397Y-115952827D01*
X104341390Y-115952814D01*
X104253789Y-115821711D01*
X104253786Y-115821707D01*
X104247459Y-115815380D01*
X104213974Y-115754057D01*
X104218958Y-115684365D01*
X104220579Y-115680246D01*
X104274737Y-115549497D01*
X104305500Y-115394842D01*
X104305500Y-115237158D01*
X104305500Y-115237155D01*
X104305499Y-115237153D01*
X104274738Y-115082510D01*
X104274737Y-115082503D01*
X104214394Y-114936821D01*
X104214393Y-114936819D01*
X104211525Y-114931454D01*
X104213629Y-114930329D01*
X104195901Y-114873717D01*
X104212771Y-114812212D01*
X104211525Y-114811546D01*
X104214390Y-114806184D01*
X104214394Y-114806179D01*
X104274737Y-114660497D01*
X104305500Y-114505842D01*
X104305500Y-114348158D01*
X104305500Y-114348155D01*
X104305499Y-114348153D01*
X104290585Y-114273175D01*
X104274737Y-114193503D01*
X104265487Y-114171172D01*
X104214397Y-114047827D01*
X104214390Y-114047814D01*
X104126789Y-113916711D01*
X104126786Y-113916707D01*
X104015292Y-113805213D01*
X104015288Y-113805210D01*
X103972550Y-113776653D01*
X107721000Y-113776653D01*
X107721000Y-113934346D01*
X107751761Y-114088989D01*
X107751764Y-114089001D01*
X107812102Y-114234672D01*
X107812109Y-114234685D01*
X107899710Y-114365788D01*
X107899713Y-114365792D01*
X108011207Y-114477286D01*
X108011211Y-114477289D01*
X108142314Y-114564890D01*
X108142327Y-114564897D01*
X108228282Y-114600500D01*
X108288003Y-114625237D01*
X108442653Y-114655999D01*
X108442656Y-114656000D01*
X108442658Y-114656000D01*
X108600344Y-114656000D01*
X108600345Y-114655999D01*
X108754997Y-114625237D01*
X108867666Y-114578567D01*
X108900672Y-114564897D01*
X108900672Y-114564896D01*
X108900679Y-114564894D01*
X109031789Y-114477289D01*
X109143289Y-114365789D01*
X109230894Y-114234679D01*
X109291237Y-114088997D01*
X109322000Y-113934342D01*
X109322000Y-113776658D01*
X109322000Y-113776655D01*
X109321999Y-113776653D01*
X109312970Y-113731257D01*
X109309369Y-113713153D01*
X111721500Y-113713153D01*
X111721500Y-113870846D01*
X111752261Y-114025489D01*
X111752264Y-114025501D01*
X111812602Y-114171172D01*
X111812609Y-114171185D01*
X111900210Y-114302288D01*
X111900213Y-114302292D01*
X112011707Y-114413786D01*
X112011711Y-114413789D01*
X112142814Y-114501390D01*
X112142827Y-114501397D01*
X112247603Y-114544796D01*
X112288503Y-114561737D01*
X112443153Y-114592499D01*
X112443156Y-114592500D01*
X112443158Y-114592500D01*
X112600844Y-114592500D01*
X112600845Y-114592499D01*
X112755497Y-114561737D01*
X112890436Y-114505844D01*
X112901172Y-114501397D01*
X112901172Y-114501396D01*
X112901179Y-114501394D01*
X113032289Y-114413789D01*
X113143789Y-114302289D01*
X113231394Y-114171179D01*
X113291737Y-114025497D01*
X113322500Y-113870842D01*
X113322500Y-113713158D01*
X113322500Y-113713155D01*
X113322499Y-113713153D01*
X113310384Y-113652248D01*
X113291737Y-113558503D01*
X113291735Y-113558498D01*
X113231397Y-113412827D01*
X113231390Y-113412814D01*
X113143789Y-113281711D01*
X113143786Y-113281707D01*
X113032292Y-113170213D01*
X113032288Y-113170210D01*
X112901185Y-113082609D01*
X112901172Y-113082602D01*
X112755501Y-113022264D01*
X112755489Y-113022261D01*
X112600845Y-112991500D01*
X112600842Y-112991500D01*
X112443158Y-112991500D01*
X112443155Y-112991500D01*
X112288510Y-113022261D01*
X112288498Y-113022264D01*
X112142827Y-113082602D01*
X112142814Y-113082609D01*
X112011711Y-113170210D01*
X112011707Y-113170213D01*
X111900213Y-113281707D01*
X111900210Y-113281711D01*
X111812609Y-113412814D01*
X111812602Y-113412827D01*
X111752264Y-113558498D01*
X111752261Y-113558510D01*
X111721500Y-113713153D01*
X109309369Y-113713153D01*
X109291238Y-113622008D01*
X109291237Y-113622007D01*
X109291237Y-113622003D01*
X109268251Y-113566510D01*
X109230897Y-113476327D01*
X109230890Y-113476314D01*
X109143289Y-113345211D01*
X109143286Y-113345207D01*
X109031792Y-113233713D01*
X109031788Y-113233710D01*
X108900685Y-113146109D01*
X108900672Y-113146102D01*
X108755001Y-113085764D01*
X108754989Y-113085761D01*
X108600345Y-113055000D01*
X108600342Y-113055000D01*
X108442658Y-113055000D01*
X108442655Y-113055000D01*
X108288010Y-113085761D01*
X108287998Y-113085764D01*
X108142327Y-113146102D01*
X108142314Y-113146109D01*
X108011211Y-113233710D01*
X108011207Y-113233713D01*
X107899713Y-113345207D01*
X107899710Y-113345211D01*
X107812109Y-113476314D01*
X107812102Y-113476327D01*
X107751764Y-113621998D01*
X107751761Y-113622010D01*
X107721000Y-113776653D01*
X103972550Y-113776653D01*
X103884185Y-113717609D01*
X103884172Y-113717602D01*
X103738501Y-113657264D01*
X103738489Y-113657261D01*
X103583845Y-113626500D01*
X103583842Y-113626500D01*
X103426158Y-113626500D01*
X103426155Y-113626500D01*
X103271510Y-113657261D01*
X103271498Y-113657264D01*
X103125827Y-113717602D01*
X103125814Y-113717609D01*
X102994711Y-113805210D01*
X102994707Y-113805213D01*
X102883213Y-113916707D01*
X102883210Y-113916711D01*
X102795609Y-114047814D01*
X102795602Y-114047827D01*
X102735264Y-114193498D01*
X102735261Y-114193510D01*
X102704500Y-114348153D01*
X101802925Y-114348153D01*
X101840789Y-114310289D01*
X101928394Y-114179179D01*
X101988737Y-114033497D01*
X102019500Y-113878842D01*
X102019500Y-113721158D01*
X102019500Y-113721155D01*
X102019499Y-113721153D01*
X102017908Y-113713153D01*
X101988737Y-113566503D01*
X101967197Y-113514500D01*
X101928397Y-113420827D01*
X101928390Y-113420814D01*
X101840789Y-113289711D01*
X101840786Y-113289707D01*
X101729292Y-113178213D01*
X101729288Y-113178210D01*
X101598185Y-113090609D01*
X101598172Y-113090602D01*
X101452501Y-113030264D01*
X101452489Y-113030261D01*
X101297845Y-112999500D01*
X101297842Y-112999500D01*
X101140158Y-112999500D01*
X101140155Y-112999500D01*
X100985510Y-113030261D01*
X100985498Y-113030264D01*
X100839827Y-113090602D01*
X100839814Y-113090609D01*
X100708711Y-113178210D01*
X100708707Y-113178213D01*
X100597213Y-113289707D01*
X100597210Y-113289711D01*
X100509609Y-113420814D01*
X100509602Y-113420827D01*
X100449264Y-113566498D01*
X100449261Y-113566510D01*
X100418500Y-113721153D01*
X77858368Y-113721153D01*
X77789466Y-113652251D01*
X77789462Y-113652248D01*
X77625684Y-113542814D01*
X77625671Y-113542807D01*
X77443693Y-113467430D01*
X77443681Y-113467427D01*
X77250495Y-113429000D01*
X76852000Y-113429000D01*
X76852000Y-114129000D01*
X76352000Y-114129000D01*
X76352000Y-113429000D01*
X76329844Y-113406844D01*
X76296359Y-113345521D01*
X76301343Y-113275829D01*
X76329843Y-113231483D01*
X76362465Y-113198862D01*
X76405318Y-113124638D01*
X76427500Y-113041853D01*
X76427500Y-112956147D01*
X76405318Y-112873362D01*
X76371051Y-112814009D01*
X76362469Y-112799144D01*
X76362463Y-112799136D01*
X76301863Y-112738536D01*
X76301855Y-112738530D01*
X76227644Y-112695685D01*
X76227640Y-112695683D01*
X76227638Y-112695682D01*
X76144853Y-112673500D01*
X76059147Y-112673500D01*
X75976362Y-112695682D01*
X75976355Y-112695685D01*
X75902144Y-112738530D01*
X75902136Y-112738536D01*
X75841536Y-112799136D01*
X75841530Y-112799144D01*
X75798685Y-112873355D01*
X75798682Y-112873362D01*
X75776500Y-112956147D01*
X75776500Y-113041853D01*
X75787616Y-113083336D01*
X75798682Y-113124637D01*
X75798685Y-113124644D01*
X75841530Y-113198855D01*
X75841536Y-113198863D01*
X75888028Y-113245355D01*
X75921513Y-113306678D01*
X75916529Y-113376370D01*
X75874657Y-113432303D01*
X75824538Y-113454653D01*
X75760318Y-113467427D01*
X75760306Y-113467430D01*
X75578328Y-113542807D01*
X75578315Y-113542814D01*
X75414537Y-113652248D01*
X75414533Y-113652251D01*
X75275251Y-113791533D01*
X75275248Y-113791537D01*
X75165814Y-113955315D01*
X75165807Y-113955328D01*
X75090430Y-114137307D01*
X75090430Y-114137309D01*
X75082138Y-114179000D01*
X73791862Y-114179000D01*
X73783569Y-114137309D01*
X73783569Y-114137307D01*
X73708192Y-113955328D01*
X73708185Y-113955315D01*
X73598751Y-113791537D01*
X73598748Y-113791533D01*
X73459466Y-113652251D01*
X73459462Y-113652248D01*
X73295684Y-113542814D01*
X73295671Y-113542807D01*
X73113693Y-113467430D01*
X73113681Y-113467427D01*
X72920495Y-113429000D01*
X72672000Y-113429000D01*
X72672000Y-114129000D01*
X72172000Y-114129000D01*
X72172000Y-113429000D01*
X71923504Y-113429000D01*
X71730318Y-113467427D01*
X71730306Y-113467430D01*
X71548328Y-113542807D01*
X71548315Y-113542814D01*
X71384537Y-113652248D01*
X71384533Y-113652251D01*
X71245251Y-113791533D01*
X71245248Y-113791537D01*
X71135814Y-113955315D01*
X71135807Y-113955328D01*
X71060430Y-114137307D01*
X71060430Y-114137309D01*
X71052138Y-114179000D01*
X69972500Y-114179000D01*
X69972500Y-109780153D01*
X75205044Y-109780153D01*
X75205044Y-109937846D01*
X75235805Y-110092489D01*
X75235808Y-110092501D01*
X75296146Y-110238172D01*
X75296153Y-110238185D01*
X75383754Y-110369288D01*
X75383757Y-110369292D01*
X75495251Y-110480786D01*
X75495255Y-110480789D01*
X75626358Y-110568390D01*
X75626371Y-110568397D01*
X75738175Y-110614707D01*
X75772047Y-110628737D01*
X75926697Y-110659499D01*
X75926700Y-110659500D01*
X75926702Y-110659500D01*
X76084388Y-110659500D01*
X76084389Y-110659499D01*
X76239041Y-110628737D01*
X76384723Y-110568394D01*
X76515833Y-110480789D01*
X76627333Y-110369289D01*
X76714938Y-110238179D01*
X76775281Y-110092497D01*
X76806044Y-109937842D01*
X76806044Y-109780158D01*
X76806044Y-109780155D01*
X76806043Y-109780153D01*
X76783548Y-109667065D01*
X76775281Y-109625503D01*
X76767044Y-109605617D01*
X76714941Y-109479827D01*
X76714934Y-109479814D01*
X76627333Y-109348711D01*
X76627330Y-109348707D01*
X76515836Y-109237213D01*
X76515832Y-109237210D01*
X76384729Y-109149609D01*
X76384716Y-109149602D01*
X76239045Y-109089264D01*
X76239033Y-109089261D01*
X76084389Y-109058500D01*
X76084386Y-109058500D01*
X75926702Y-109058500D01*
X75926699Y-109058500D01*
X75772054Y-109089261D01*
X75772042Y-109089264D01*
X75626371Y-109149602D01*
X75626358Y-109149609D01*
X75495255Y-109237210D01*
X75495251Y-109237213D01*
X75383757Y-109348707D01*
X75383754Y-109348711D01*
X75296153Y-109479814D01*
X75296146Y-109479827D01*
X75235808Y-109625498D01*
X75235805Y-109625510D01*
X75205044Y-109780153D01*
X69972500Y-109780153D01*
X69972500Y-108506153D01*
X77939500Y-108506153D01*
X77939500Y-108663846D01*
X77970261Y-108818489D01*
X77970264Y-108818501D01*
X78030602Y-108964172D01*
X78030609Y-108964185D01*
X78118210Y-109095288D01*
X78118213Y-109095292D01*
X78229707Y-109206786D01*
X78229711Y-109206789D01*
X78360814Y-109294390D01*
X78360827Y-109294397D01*
X78487824Y-109347000D01*
X78506503Y-109354737D01*
X78566788Y-109366728D01*
X78580414Y-109369439D01*
X78642325Y-109401823D01*
X78676899Y-109462539D01*
X78673160Y-109532308D01*
X78632294Y-109588981D01*
X78603676Y-109605617D01*
X78487824Y-109653604D01*
X78487814Y-109653609D01*
X78356711Y-109741210D01*
X78356707Y-109741213D01*
X78245213Y-109852707D01*
X78245210Y-109852711D01*
X78157609Y-109983814D01*
X78157602Y-109983827D01*
X78097264Y-110129498D01*
X78097261Y-110129510D01*
X78066500Y-110284153D01*
X78066500Y-110441846D01*
X78097261Y-110596489D01*
X78097264Y-110596501D01*
X78157602Y-110742172D01*
X78157609Y-110742185D01*
X78245210Y-110873288D01*
X78245213Y-110873292D01*
X78356707Y-110984786D01*
X78356711Y-110984789D01*
X78487814Y-111072390D01*
X78487827Y-111072397D01*
X78581517Y-111111204D01*
X78633503Y-111132737D01*
X78722901Y-111150519D01*
X78740544Y-111154029D01*
X78802455Y-111186413D01*
X78837029Y-111247129D01*
X78837970Y-111251454D01*
X78859261Y-111358491D01*
X78859264Y-111358501D01*
X78919602Y-111504172D01*
X78919609Y-111504185D01*
X79007210Y-111635288D01*
X79007213Y-111635292D01*
X79118707Y-111746786D01*
X79118711Y-111746789D01*
X79249814Y-111834390D01*
X79249827Y-111834397D01*
X79395498Y-111894735D01*
X79395503Y-111894737D01*
X79550153Y-111925499D01*
X79550156Y-111925500D01*
X79550158Y-111925500D01*
X79707844Y-111925500D01*
X79707845Y-111925499D01*
X79862497Y-111894737D01*
X80008179Y-111834394D01*
X80139289Y-111746789D01*
X80250789Y-111635289D01*
X80338394Y-111504179D01*
X80398737Y-111358497D01*
X80427481Y-111213992D01*
X80427483Y-111213983D01*
X123512000Y-111213983D01*
X123512000Y-112814001D01*
X123512001Y-112814018D01*
X123522500Y-112916796D01*
X123522501Y-112916799D01*
X123568297Y-113055000D01*
X123577686Y-113083334D01*
X123669788Y-113232656D01*
X123793844Y-113356712D01*
X123943166Y-113448814D01*
X124109703Y-113503999D01*
X124212491Y-113514500D01*
X125812508Y-113514499D01*
X125915297Y-113503999D01*
X126081834Y-113448814D01*
X126231156Y-113356712D01*
X126355212Y-113232656D01*
X126447314Y-113083334D01*
X126502499Y-112916797D01*
X126513000Y-112814009D01*
X126512999Y-111213992D01*
X126511963Y-111203854D01*
X126502499Y-111111203D01*
X126502498Y-111111200D01*
X126489639Y-111072394D01*
X126447314Y-110944666D01*
X126355212Y-110795344D01*
X126231156Y-110671288D01*
X126081834Y-110579186D01*
X125915297Y-110524001D01*
X125915295Y-110524000D01*
X125812510Y-110513500D01*
X124212498Y-110513500D01*
X124212481Y-110513501D01*
X124109703Y-110524000D01*
X124109700Y-110524001D01*
X123943168Y-110579185D01*
X123943163Y-110579187D01*
X123793842Y-110671289D01*
X123669789Y-110795342D01*
X123577687Y-110944663D01*
X123577685Y-110944668D01*
X123549849Y-111028670D01*
X123522501Y-111111203D01*
X123522501Y-111111204D01*
X123522500Y-111111204D01*
X123512000Y-111213983D01*
X80427483Y-111213983D01*
X80429498Y-111203854D01*
X80429498Y-111203849D01*
X80429500Y-111203842D01*
X80429500Y-111046158D01*
X80429500Y-111046155D01*
X80429499Y-111046153D01*
X80398738Y-110891510D01*
X80398737Y-110891503D01*
X80353587Y-110782500D01*
X80338397Y-110745827D01*
X80338390Y-110745814D01*
X80250789Y-110614711D01*
X80250786Y-110614707D01*
X80139292Y-110503213D01*
X80139288Y-110503210D01*
X80008185Y-110415609D01*
X80008172Y-110415602D01*
X79862501Y-110355264D01*
X79862491Y-110355261D01*
X79755454Y-110333970D01*
X79693543Y-110301585D01*
X79658969Y-110240869D01*
X79658029Y-110236544D01*
X79636738Y-110129510D01*
X79636737Y-110129503D01*
X79636735Y-110129498D01*
X79576397Y-109983827D01*
X79576390Y-109983814D01*
X79488789Y-109852711D01*
X79488786Y-109852707D01*
X79377292Y-109741213D01*
X79377288Y-109741210D01*
X79246185Y-109653609D01*
X79246172Y-109653602D01*
X79100501Y-109593264D01*
X79100491Y-109593261D01*
X79026584Y-109578560D01*
X78964673Y-109546175D01*
X78930099Y-109485459D01*
X78933840Y-109415689D01*
X78974706Y-109359018D01*
X79003315Y-109342385D01*
X79119179Y-109294394D01*
X79250289Y-109206789D01*
X79361789Y-109095289D01*
X79449394Y-108964179D01*
X79509737Y-108818497D01*
X79540500Y-108663842D01*
X79540500Y-108633153D01*
X83400500Y-108633153D01*
X83400500Y-108790846D01*
X83431261Y-108945489D01*
X83431264Y-108945501D01*
X83491602Y-109091172D01*
X83491609Y-109091185D01*
X83579210Y-109222288D01*
X83579213Y-109222292D01*
X83616240Y-109259319D01*
X83649725Y-109320642D01*
X83644741Y-109390334D01*
X83616240Y-109434681D01*
X83579213Y-109471707D01*
X83579210Y-109471711D01*
X83491609Y-109602814D01*
X83491602Y-109602827D01*
X83431264Y-109748498D01*
X83431261Y-109748510D01*
X83400500Y-109903153D01*
X83400500Y-110060846D01*
X83431261Y-110215489D01*
X83431264Y-110215501D01*
X83491602Y-110361172D01*
X83491609Y-110361185D01*
X83579210Y-110492288D01*
X83579213Y-110492292D01*
X83690707Y-110603786D01*
X83690711Y-110603789D01*
X83821814Y-110691390D01*
X83821827Y-110691397D01*
X83953220Y-110745821D01*
X83967503Y-110751737D01*
X84122153Y-110782499D01*
X84122156Y-110782500D01*
X84122158Y-110782500D01*
X84279844Y-110782500D01*
X84279845Y-110782499D01*
X84434497Y-110751737D01*
X84580179Y-110691394D01*
X84711289Y-110603789D01*
X84822789Y-110492289D01*
X84910394Y-110361179D01*
X84912845Y-110355263D01*
X84942299Y-110284153D01*
X84970737Y-110215497D01*
X85001500Y-110060842D01*
X85001500Y-109903158D01*
X85001500Y-109903155D01*
X85001499Y-109903153D01*
X84991465Y-109852711D01*
X84970737Y-109748503D01*
X84967716Y-109741210D01*
X84910397Y-109602827D01*
X84910390Y-109602814D01*
X84822789Y-109471711D01*
X84822786Y-109471707D01*
X84785760Y-109434681D01*
X84752275Y-109373358D01*
X84757259Y-109303666D01*
X84785760Y-109259319D01*
X84822786Y-109222292D01*
X84822789Y-109222289D01*
X84910394Y-109091179D01*
X84911189Y-109089261D01*
X84962996Y-108964185D01*
X84970737Y-108945497D01*
X85001500Y-108790842D01*
X85001500Y-108633158D01*
X85001500Y-108633155D01*
X85001499Y-108633153D01*
X90766500Y-108633153D01*
X90766500Y-108790846D01*
X90797261Y-108945489D01*
X90797264Y-108945501D01*
X90857602Y-109091172D01*
X90857609Y-109091185D01*
X90945210Y-109222288D01*
X90945213Y-109222292D01*
X91056707Y-109333786D01*
X91056711Y-109333789D01*
X91187814Y-109421390D01*
X91187827Y-109421397D01*
X91309288Y-109471707D01*
X91333503Y-109481737D01*
X91488153Y-109512499D01*
X91488156Y-109512500D01*
X91488158Y-109512500D01*
X91645844Y-109512500D01*
X91645845Y-109512499D01*
X91800497Y-109481737D01*
X91914101Y-109434681D01*
X91946172Y-109421397D01*
X91946172Y-109421396D01*
X91946179Y-109421394D01*
X92077289Y-109333789D01*
X92090436Y-109320642D01*
X92119361Y-109291718D01*
X92188786Y-109222292D01*
X92188789Y-109222289D01*
X92276394Y-109091179D01*
X92277189Y-109089261D01*
X92328996Y-108964185D01*
X92336737Y-108945497D01*
X92367500Y-108790842D01*
X92367500Y-108633158D01*
X92367500Y-108633155D01*
X92367499Y-108633153D01*
X92336738Y-108478510D01*
X92336737Y-108478503D01*
X92310969Y-108416292D01*
X92276397Y-108332827D01*
X92276390Y-108332814D01*
X92188789Y-108201711D01*
X92188786Y-108201707D01*
X92077292Y-108090213D01*
X92077288Y-108090210D01*
X91946185Y-108002609D01*
X91946172Y-108002602D01*
X91800501Y-107942264D01*
X91800489Y-107942261D01*
X91645845Y-107911500D01*
X91645842Y-107911500D01*
X91488158Y-107911500D01*
X91488155Y-107911500D01*
X91333510Y-107942261D01*
X91333498Y-107942264D01*
X91187827Y-108002602D01*
X91187814Y-108002609D01*
X91056711Y-108090210D01*
X91056707Y-108090213D01*
X90945213Y-108201707D01*
X90945210Y-108201711D01*
X90857609Y-108332814D01*
X90857602Y-108332827D01*
X90797264Y-108478498D01*
X90797261Y-108478510D01*
X90766500Y-108633153D01*
X85001499Y-108633153D01*
X84970738Y-108478510D01*
X84970737Y-108478503D01*
X84944969Y-108416292D01*
X84910397Y-108332827D01*
X84910390Y-108332814D01*
X84822789Y-108201711D01*
X84822786Y-108201707D01*
X84711292Y-108090213D01*
X84711288Y-108090210D01*
X84580185Y-108002609D01*
X84580172Y-108002602D01*
X84434501Y-107942264D01*
X84434489Y-107942261D01*
X84279845Y-107911500D01*
X84279842Y-107911500D01*
X84122158Y-107911500D01*
X84122155Y-107911500D01*
X83967510Y-107942261D01*
X83967498Y-107942264D01*
X83821827Y-108002602D01*
X83821814Y-108002609D01*
X83690711Y-108090210D01*
X83690707Y-108090213D01*
X83579213Y-108201707D01*
X83579210Y-108201711D01*
X83491609Y-108332814D01*
X83491602Y-108332827D01*
X83431264Y-108478498D01*
X83431261Y-108478510D01*
X83400500Y-108633153D01*
X79540500Y-108633153D01*
X79540500Y-108506158D01*
X79540500Y-108506155D01*
X79540499Y-108506153D01*
X79509738Y-108351510D01*
X79509737Y-108351503D01*
X79497538Y-108322052D01*
X79449397Y-108205827D01*
X79449390Y-108205814D01*
X79361789Y-108074711D01*
X79361786Y-108074707D01*
X79250292Y-107963213D01*
X79250288Y-107963210D01*
X79119185Y-107875609D01*
X79119172Y-107875602D01*
X78973501Y-107815264D01*
X78973489Y-107815261D01*
X78818845Y-107784500D01*
X78818842Y-107784500D01*
X78661158Y-107784500D01*
X78661155Y-107784500D01*
X78506510Y-107815261D01*
X78506498Y-107815264D01*
X78360827Y-107875602D01*
X78360814Y-107875609D01*
X78229711Y-107963210D01*
X78229707Y-107963213D01*
X78118213Y-108074707D01*
X78118210Y-108074711D01*
X78030609Y-108205814D01*
X78030602Y-108205827D01*
X77970264Y-108351498D01*
X77970261Y-108351510D01*
X77939500Y-108506153D01*
X69972500Y-108506153D01*
X69972500Y-105539000D01*
X71052138Y-105539000D01*
X71855012Y-105539000D01*
X71837795Y-105548940D01*
X71781940Y-105604795D01*
X71742444Y-105673204D01*
X71722000Y-105749504D01*
X71722000Y-105828496D01*
X71742444Y-105904796D01*
X71781940Y-105973205D01*
X71837795Y-106029060D01*
X71855012Y-106039000D01*
X71052138Y-106039000D01*
X71060430Y-106080690D01*
X71060430Y-106080692D01*
X71135807Y-106262671D01*
X71135814Y-106262684D01*
X71245248Y-106426462D01*
X71245251Y-106426466D01*
X71384533Y-106565748D01*
X71384537Y-106565751D01*
X71548315Y-106675185D01*
X71548328Y-106675192D01*
X71730306Y-106750569D01*
X71730318Y-106750572D01*
X71923504Y-106788999D01*
X71923508Y-106789000D01*
X72172000Y-106789000D01*
X72172000Y-106089000D01*
X72672000Y-106089000D01*
X72672000Y-106789000D01*
X72920492Y-106789000D01*
X72920495Y-106788999D01*
X73113681Y-106750572D01*
X73113693Y-106750569D01*
X73295671Y-106675192D01*
X73295684Y-106675185D01*
X73459462Y-106565751D01*
X73459466Y-106565748D01*
X73598748Y-106426466D01*
X73598751Y-106426462D01*
X73708185Y-106262684D01*
X73708192Y-106262671D01*
X73783569Y-106080692D01*
X73783569Y-106080690D01*
X73791862Y-106039000D01*
X72988988Y-106039000D01*
X73006205Y-106029060D01*
X73062060Y-105973205D01*
X73101556Y-105904796D01*
X73122000Y-105828496D01*
X73122000Y-105749504D01*
X73101556Y-105673204D01*
X73062060Y-105604795D01*
X73006205Y-105548940D01*
X72988988Y-105539000D01*
X73791862Y-105539000D01*
X75082138Y-105539000D01*
X75885012Y-105539000D01*
X75867795Y-105548940D01*
X75811940Y-105604795D01*
X75772444Y-105673204D01*
X75752000Y-105749504D01*
X75752000Y-105828496D01*
X75772444Y-105904796D01*
X75811940Y-105973205D01*
X75867795Y-106029060D01*
X75885012Y-106039000D01*
X75082138Y-106039000D01*
X75090430Y-106080690D01*
X75090430Y-106080692D01*
X75165807Y-106262671D01*
X75165814Y-106262684D01*
X75275248Y-106426462D01*
X75275251Y-106426466D01*
X75414533Y-106565748D01*
X75414537Y-106565751D01*
X75578315Y-106675185D01*
X75578328Y-106675192D01*
X75760306Y-106750569D01*
X75760311Y-106750570D01*
X75824536Y-106763345D01*
X75886448Y-106795729D01*
X75921023Y-106856445D01*
X75917284Y-106926214D01*
X75888029Y-106972643D01*
X75841536Y-107019136D01*
X75841530Y-107019144D01*
X75798685Y-107093355D01*
X75798682Y-107093362D01*
X75776500Y-107176147D01*
X75776500Y-107261853D01*
X75793413Y-107324971D01*
X75798682Y-107344637D01*
X75798685Y-107344644D01*
X75841530Y-107418855D01*
X75841534Y-107418860D01*
X75841535Y-107418862D01*
X75902138Y-107479465D01*
X75902140Y-107479466D01*
X75902144Y-107479469D01*
X75973805Y-107520842D01*
X75976362Y-107522318D01*
X76059147Y-107544500D01*
X76059149Y-107544500D01*
X76144851Y-107544500D01*
X76144853Y-107544500D01*
X76227638Y-107522318D01*
X76301862Y-107479465D01*
X76362465Y-107418862D01*
X76394628Y-107363153D01*
X95973500Y-107363153D01*
X95973500Y-107520846D01*
X96004261Y-107675489D01*
X96004264Y-107675501D01*
X96064602Y-107821172D01*
X96064609Y-107821185D01*
X96152210Y-107952288D01*
X96152213Y-107952292D01*
X96263707Y-108063786D01*
X96263711Y-108063789D01*
X96394814Y-108151390D01*
X96394827Y-108151397D01*
X96526220Y-108205821D01*
X96540503Y-108211737D01*
X96695153Y-108242499D01*
X96695156Y-108242500D01*
X96695158Y-108242500D01*
X96852844Y-108242500D01*
X96852845Y-108242499D01*
X97007497Y-108211737D01*
X97153179Y-108151394D01*
X97251127Y-108085947D01*
X123512500Y-108085947D01*
X123512500Y-108322052D01*
X123549434Y-108555247D01*
X123622397Y-108779802D01*
X123729587Y-108990174D01*
X123789838Y-109073104D01*
X123789840Y-109073105D01*
X124488712Y-108374233D01*
X124499982Y-108416292D01*
X124572390Y-108541708D01*
X124674792Y-108644110D01*
X124800208Y-108716518D01*
X124842265Y-108727787D01*
X124143393Y-109426658D01*
X124226328Y-109486914D01*
X124436697Y-109594102D01*
X124661252Y-109667065D01*
X124661251Y-109667065D01*
X124894448Y-109704000D01*
X125130552Y-109704000D01*
X125363747Y-109667065D01*
X125588302Y-109594102D01*
X125798663Y-109486918D01*
X125798669Y-109486914D01*
X125881604Y-109426658D01*
X125881605Y-109426658D01*
X125182733Y-108727787D01*
X125224792Y-108716518D01*
X125350208Y-108644110D01*
X125452610Y-108541708D01*
X125525018Y-108416292D01*
X125536287Y-108374234D01*
X126235158Y-109073105D01*
X126235158Y-109073104D01*
X126295414Y-108990169D01*
X126295418Y-108990163D01*
X126402602Y-108779802D01*
X126475565Y-108555247D01*
X126512500Y-108322052D01*
X126512500Y-108085947D01*
X126475565Y-107852752D01*
X126402602Y-107628197D01*
X126295414Y-107417828D01*
X126235158Y-107334894D01*
X126235158Y-107334893D01*
X125536287Y-108033765D01*
X125525018Y-107991708D01*
X125452610Y-107866292D01*
X125350208Y-107763890D01*
X125224792Y-107691482D01*
X125182734Y-107680212D01*
X125881605Y-106981340D01*
X125881604Y-106981338D01*
X125798674Y-106921087D01*
X125588302Y-106813897D01*
X125363747Y-106740934D01*
X125363748Y-106740934D01*
X125130552Y-106704000D01*
X124894448Y-106704000D01*
X124661252Y-106740934D01*
X124436697Y-106813897D01*
X124226330Y-106921084D01*
X124143394Y-106981340D01*
X124842266Y-107680212D01*
X124800208Y-107691482D01*
X124674792Y-107763890D01*
X124572390Y-107866292D01*
X124499982Y-107991708D01*
X124488712Y-108033766D01*
X123789840Y-107334894D01*
X123729584Y-107417830D01*
X123622397Y-107628197D01*
X123549434Y-107852752D01*
X123512500Y-108085947D01*
X97251127Y-108085947D01*
X97284289Y-108063789D01*
X97284292Y-108063786D01*
X97354685Y-107993394D01*
X97395786Y-107952292D01*
X97395789Y-107952289D01*
X97483394Y-107821179D01*
X97485845Y-107815263D01*
X97543735Y-107675501D01*
X97543737Y-107675497D01*
X97574500Y-107520842D01*
X97574500Y-107363158D01*
X97574500Y-107363155D01*
X97574499Y-107363153D01*
X97554349Y-107261852D01*
X97543737Y-107208503D01*
X97498587Y-107099500D01*
X97483397Y-107062827D01*
X97483390Y-107062814D01*
X97395789Y-106931711D01*
X97395786Y-106931707D01*
X97284292Y-106820213D01*
X97284288Y-106820210D01*
X97153185Y-106732609D01*
X97153172Y-106732602D01*
X97097703Y-106709627D01*
X97007501Y-106672264D01*
X97007489Y-106672261D01*
X96852845Y-106641500D01*
X96852842Y-106641500D01*
X96695158Y-106641500D01*
X96695155Y-106641500D01*
X96540510Y-106672261D01*
X96540498Y-106672264D01*
X96394827Y-106732602D01*
X96394814Y-106732609D01*
X96263711Y-106820210D01*
X96263707Y-106820213D01*
X96152213Y-106931707D01*
X96152210Y-106931711D01*
X96064609Y-107062814D01*
X96064602Y-107062827D01*
X96004264Y-107208498D01*
X96004261Y-107208510D01*
X95973500Y-107363153D01*
X76394628Y-107363153D01*
X76405318Y-107344638D01*
X76427500Y-107261853D01*
X76427500Y-107176147D01*
X76405318Y-107093362D01*
X76405314Y-107093355D01*
X76362469Y-107019144D01*
X76362463Y-107019136D01*
X76329844Y-106986517D01*
X76296359Y-106925194D01*
X76301343Y-106855502D01*
X76329845Y-106811154D01*
X76352000Y-106788999D01*
X76352000Y-106089000D01*
X76852000Y-106089000D01*
X76852000Y-106789000D01*
X77250492Y-106789000D01*
X77250495Y-106788999D01*
X77443681Y-106750572D01*
X77443693Y-106750569D01*
X77625671Y-106675192D01*
X77625684Y-106675185D01*
X77789462Y-106565751D01*
X77789466Y-106565748D01*
X77928748Y-106426466D01*
X77928751Y-106426462D01*
X78038185Y-106262684D01*
X78038192Y-106262671D01*
X78055803Y-106220153D01*
X93306500Y-106220153D01*
X93306500Y-106377846D01*
X93337261Y-106532489D01*
X93337264Y-106532501D01*
X93397602Y-106678172D01*
X93397609Y-106678185D01*
X93485210Y-106809288D01*
X93485213Y-106809292D01*
X93596707Y-106920786D01*
X93596711Y-106920789D01*
X93727814Y-107008390D01*
X93727827Y-107008397D01*
X93859220Y-107062821D01*
X93873503Y-107068737D01*
X94028153Y-107099499D01*
X94028156Y-107099500D01*
X94028158Y-107099500D01*
X94185844Y-107099500D01*
X94185845Y-107099499D01*
X94340497Y-107068737D01*
X94460226Y-107019144D01*
X94486172Y-107008397D01*
X94486172Y-107008396D01*
X94486179Y-107008394D01*
X94617289Y-106920789D01*
X94728789Y-106809289D01*
X94816394Y-106678179D01*
X94818845Y-106672263D01*
X94848299Y-106601153D01*
X102323500Y-106601153D01*
X102323500Y-106758846D01*
X102354261Y-106913489D01*
X102354264Y-106913501D01*
X102414602Y-107059172D01*
X102414609Y-107059185D01*
X102502210Y-107190288D01*
X102502213Y-107190292D01*
X102613707Y-107301786D01*
X102613711Y-107301789D01*
X102744814Y-107389390D01*
X102744827Y-107389397D01*
X102890498Y-107449735D01*
X102890503Y-107449737D01*
X103039945Y-107479463D01*
X103045153Y-107480499D01*
X103045156Y-107480500D01*
X103045158Y-107480500D01*
X103202844Y-107480500D01*
X103202845Y-107480499D01*
X103357497Y-107449737D01*
X103503179Y-107389394D01*
X103634289Y-107301789D01*
X103745789Y-107190289D01*
X103833394Y-107059179D01*
X103849977Y-107019144D01*
X103865716Y-106981147D01*
X103879531Y-106947791D01*
X103893737Y-106913497D01*
X103924500Y-106758842D01*
X103924500Y-106601158D01*
X103924500Y-106601155D01*
X103924499Y-106601153D01*
X103893738Y-106446510D01*
X103893737Y-106446503D01*
X103893735Y-106446498D01*
X103833397Y-106300827D01*
X103833390Y-106300814D01*
X103745789Y-106169711D01*
X103745786Y-106169707D01*
X103634292Y-106058213D01*
X103634288Y-106058210D01*
X103503185Y-105970609D01*
X103503172Y-105970602D01*
X103357501Y-105910264D01*
X103357489Y-105910261D01*
X103202845Y-105879500D01*
X103202842Y-105879500D01*
X103045158Y-105879500D01*
X103045155Y-105879500D01*
X102890510Y-105910261D01*
X102890498Y-105910264D01*
X102744827Y-105970602D01*
X102744814Y-105970609D01*
X102613711Y-106058210D01*
X102613707Y-106058213D01*
X102502213Y-106169707D01*
X102502210Y-106169711D01*
X102414609Y-106300814D01*
X102414602Y-106300827D01*
X102354264Y-106446498D01*
X102354261Y-106446510D01*
X102323500Y-106601153D01*
X94848299Y-106601153D01*
X94876735Y-106532501D01*
X94876737Y-106532497D01*
X94907500Y-106377842D01*
X94907500Y-106220158D01*
X94907500Y-106220155D01*
X94907499Y-106220153D01*
X94897465Y-106169711D01*
X94876737Y-106065503D01*
X94849518Y-105999789D01*
X94816397Y-105919827D01*
X94816390Y-105919814D01*
X94728789Y-105788711D01*
X94728786Y-105788707D01*
X94617292Y-105677213D01*
X94617288Y-105677210D01*
X94486185Y-105589609D01*
X94486172Y-105589602D01*
X94340501Y-105529264D01*
X94340489Y-105529261D01*
X94185845Y-105498500D01*
X94185842Y-105498500D01*
X94028158Y-105498500D01*
X94028155Y-105498500D01*
X93873510Y-105529261D01*
X93873498Y-105529264D01*
X93727827Y-105589602D01*
X93727814Y-105589609D01*
X93596711Y-105677210D01*
X93596707Y-105677213D01*
X93485213Y-105788707D01*
X93485210Y-105788711D01*
X93397609Y-105919814D01*
X93397602Y-105919827D01*
X93337264Y-106065498D01*
X93337261Y-106065510D01*
X93306500Y-106220153D01*
X78055803Y-106220153D01*
X78077980Y-106166614D01*
X78113569Y-106080692D01*
X78113569Y-106080690D01*
X78121862Y-106039000D01*
X77318988Y-106039000D01*
X77336205Y-106029060D01*
X77392060Y-105973205D01*
X77431556Y-105904796D01*
X77452000Y-105828496D01*
X77452000Y-105749504D01*
X77431556Y-105673204D01*
X77392060Y-105604795D01*
X77336205Y-105548940D01*
X77318988Y-105539000D01*
X78121862Y-105539000D01*
X78113569Y-105497309D01*
X78113569Y-105497307D01*
X78038192Y-105315328D01*
X78038185Y-105315315D01*
X77928751Y-105151537D01*
X77928748Y-105151533D01*
X77789466Y-105012251D01*
X77789462Y-105012248D01*
X77625684Y-104902814D01*
X77625671Y-104902807D01*
X77443693Y-104827430D01*
X77443681Y-104827427D01*
X77250495Y-104789000D01*
X76852000Y-104789000D01*
X76852000Y-105489000D01*
X76352000Y-105489000D01*
X76352000Y-104789000D01*
X75953504Y-104789000D01*
X75760318Y-104827427D01*
X75760306Y-104827430D01*
X75578328Y-104902807D01*
X75578315Y-104902814D01*
X75414537Y-105012248D01*
X75414533Y-105012251D01*
X75275251Y-105151533D01*
X75275248Y-105151537D01*
X75165814Y-105315315D01*
X75165807Y-105315328D01*
X75090430Y-105497307D01*
X75090430Y-105497309D01*
X75082138Y-105539000D01*
X73791862Y-105539000D01*
X73783569Y-105497309D01*
X73783569Y-105497307D01*
X73708192Y-105315328D01*
X73708185Y-105315315D01*
X73598751Y-105151537D01*
X73598748Y-105151533D01*
X73459466Y-105012251D01*
X73459462Y-105012248D01*
X73295684Y-104902814D01*
X73295671Y-104902807D01*
X73113693Y-104827430D01*
X73113681Y-104827427D01*
X72920495Y-104789000D01*
X72672000Y-104789000D01*
X72672000Y-105489000D01*
X72172000Y-105489000D01*
X72172000Y-104789000D01*
X71923504Y-104789000D01*
X71730318Y-104827427D01*
X71730306Y-104827430D01*
X71548328Y-104902807D01*
X71548315Y-104902814D01*
X71384537Y-105012248D01*
X71384533Y-105012251D01*
X71245251Y-105151533D01*
X71245248Y-105151537D01*
X71135814Y-105315315D01*
X71135807Y-105315328D01*
X71060430Y-105497307D01*
X71060430Y-105497309D01*
X71052138Y-105539000D01*
X69972500Y-105539000D01*
X69972500Y-104061153D01*
X84924500Y-104061153D01*
X84924500Y-104218846D01*
X84955261Y-104373489D01*
X84955264Y-104373501D01*
X85015602Y-104519171D01*
X85015609Y-104519184D01*
X85055650Y-104579109D01*
X85076528Y-104645787D01*
X85058043Y-104713167D01*
X85055650Y-104716891D01*
X85015609Y-104776815D01*
X85015602Y-104776828D01*
X84955264Y-104922498D01*
X84955261Y-104922510D01*
X84924500Y-105077153D01*
X84924500Y-105234846D01*
X84955261Y-105389489D01*
X84955264Y-105389501D01*
X85015602Y-105535172D01*
X85015609Y-105535185D01*
X85103210Y-105666288D01*
X85103213Y-105666292D01*
X85214707Y-105777786D01*
X85214711Y-105777789D01*
X85345814Y-105865390D01*
X85345827Y-105865397D01*
X85477220Y-105919821D01*
X85491503Y-105925737D01*
X85646153Y-105956499D01*
X85646156Y-105956500D01*
X85646158Y-105956500D01*
X85803844Y-105956500D01*
X85803845Y-105956499D01*
X85958497Y-105925737D01*
X86104179Y-105865394D01*
X86235289Y-105777789D01*
X86346789Y-105666289D01*
X86434394Y-105535179D01*
X86436845Y-105529263D01*
X86494735Y-105389501D01*
X86494737Y-105389497D01*
X86512707Y-105299158D01*
X86512708Y-105299153D01*
X96132500Y-105299153D01*
X96132500Y-105456846D01*
X96163261Y-105611489D01*
X96163264Y-105611501D01*
X96223602Y-105757172D01*
X96223609Y-105757185D01*
X96311210Y-105888288D01*
X96311213Y-105888292D01*
X96422707Y-105999786D01*
X96422711Y-105999789D01*
X96553814Y-106087390D01*
X96553827Y-106087397D01*
X96699498Y-106147735D01*
X96699503Y-106147737D01*
X96854153Y-106178499D01*
X96854156Y-106178500D01*
X96854158Y-106178500D01*
X97011844Y-106178500D01*
X97011845Y-106178499D01*
X97166497Y-106147737D01*
X97312179Y-106087394D01*
X97443289Y-105999789D01*
X97554789Y-105888289D01*
X97642394Y-105757179D01*
X97702737Y-105611497D01*
X97733500Y-105456842D01*
X97733500Y-105299158D01*
X97733500Y-105299155D01*
X97733499Y-105299153D01*
X97720707Y-105234844D01*
X97702737Y-105144503D01*
X97647956Y-105012248D01*
X97642397Y-104998827D01*
X97642390Y-104998814D01*
X97554789Y-104867711D01*
X97554786Y-104867707D01*
X97443292Y-104756213D01*
X97443288Y-104756210D01*
X97312185Y-104668609D01*
X97312172Y-104668602D01*
X97166501Y-104608264D01*
X97166489Y-104608261D01*
X97011845Y-104577500D01*
X97011842Y-104577500D01*
X96854158Y-104577500D01*
X96854155Y-104577500D01*
X96699510Y-104608261D01*
X96699498Y-104608264D01*
X96553827Y-104668602D01*
X96553814Y-104668609D01*
X96422711Y-104756210D01*
X96422707Y-104756213D01*
X96311213Y-104867707D01*
X96311210Y-104867711D01*
X96223609Y-104998814D01*
X96223602Y-104998827D01*
X96163264Y-105144498D01*
X96163261Y-105144510D01*
X96132500Y-105299153D01*
X86512708Y-105299153D01*
X86518731Y-105268875D01*
X86518731Y-105268874D01*
X86525500Y-105234844D01*
X86525500Y-105077155D01*
X86525499Y-105077153D01*
X86512589Y-105012251D01*
X86494737Y-104922503D01*
X86434397Y-104776828D01*
X86434397Y-104776827D01*
X86434393Y-104776820D01*
X86420624Y-104756213D01*
X86394349Y-104716890D01*
X86373472Y-104650214D01*
X86391956Y-104582834D01*
X86394338Y-104579125D01*
X86434394Y-104519179D01*
X86494737Y-104373497D01*
X86525500Y-104218842D01*
X86525500Y-104061158D01*
X86525500Y-104061155D01*
X86525499Y-104061153D01*
X86510948Y-103988000D01*
X86494737Y-103906503D01*
X86454469Y-103809286D01*
X86434397Y-103760827D01*
X86434390Y-103760814D01*
X86346789Y-103629711D01*
X86346786Y-103629707D01*
X86235292Y-103518213D01*
X86235288Y-103518210D01*
X86104185Y-103430609D01*
X86104172Y-103430602D01*
X86048703Y-103407627D01*
X85958501Y-103370264D01*
X85958489Y-103370261D01*
X85803845Y-103339500D01*
X85803842Y-103339500D01*
X85646158Y-103339500D01*
X85646155Y-103339500D01*
X85491510Y-103370261D01*
X85491498Y-103370264D01*
X85345827Y-103430602D01*
X85345814Y-103430609D01*
X85214711Y-103518210D01*
X85214707Y-103518213D01*
X85103213Y-103629707D01*
X85103210Y-103629711D01*
X85015609Y-103760814D01*
X85015602Y-103760827D01*
X84955264Y-103906498D01*
X84955261Y-103906510D01*
X84924500Y-104061153D01*
X69972500Y-104061153D01*
X69972500Y-103108653D01*
X78130000Y-103108653D01*
X78130000Y-103266346D01*
X78160761Y-103420989D01*
X78160764Y-103421001D01*
X78221102Y-103566672D01*
X78221109Y-103566685D01*
X78308710Y-103697788D01*
X78308713Y-103697792D01*
X78420207Y-103809286D01*
X78420211Y-103809289D01*
X78551314Y-103896890D01*
X78551327Y-103896897D01*
X78656608Y-103940505D01*
X78697003Y-103957237D01*
X78851653Y-103987999D01*
X78851656Y-103988000D01*
X78851658Y-103988000D01*
X79009344Y-103988000D01*
X79009345Y-103987999D01*
X79163997Y-103957237D01*
X79181621Y-103949936D01*
X79204393Y-103940505D01*
X79309672Y-103896897D01*
X79309672Y-103896896D01*
X79309679Y-103896894D01*
X79440789Y-103809289D01*
X79552289Y-103697789D01*
X79639894Y-103566679D01*
X79700237Y-103420997D01*
X79724473Y-103299153D01*
X95973500Y-103299153D01*
X95973500Y-103456846D01*
X96004261Y-103611489D01*
X96004264Y-103611501D01*
X96064602Y-103757172D01*
X96064609Y-103757185D01*
X96152210Y-103888288D01*
X96152213Y-103888292D01*
X96263707Y-103999786D01*
X96263711Y-103999789D01*
X96394814Y-104087390D01*
X96394827Y-104087397D01*
X96540498Y-104147735D01*
X96540503Y-104147737D01*
X96695153Y-104178499D01*
X96695156Y-104178500D01*
X96695158Y-104178500D01*
X96852844Y-104178500D01*
X96852845Y-104178499D01*
X97007497Y-104147737D01*
X97153179Y-104087394D01*
X97284289Y-103999789D01*
X97395789Y-103888289D01*
X97483394Y-103757179D01*
X97543737Y-103611497D01*
X97552652Y-103566679D01*
X97555343Y-103553153D01*
X103974500Y-103553153D01*
X103974500Y-103710846D01*
X104005261Y-103865489D01*
X104005264Y-103865501D01*
X104065602Y-104011172D01*
X104065609Y-104011185D01*
X104153210Y-104142288D01*
X104153213Y-104142292D01*
X104264707Y-104253786D01*
X104264711Y-104253789D01*
X104395814Y-104341390D01*
X104395827Y-104341397D01*
X104541498Y-104401735D01*
X104541503Y-104401737D01*
X104696153Y-104432499D01*
X104696156Y-104432500D01*
X104696158Y-104432500D01*
X104853844Y-104432500D01*
X104853845Y-104432499D01*
X105008497Y-104401737D01*
X105154179Y-104341394D01*
X105285289Y-104253789D01*
X105396789Y-104142289D01*
X105484394Y-104011179D01*
X105544737Y-103865497D01*
X105575500Y-103710842D01*
X105575500Y-103553158D01*
X105575500Y-103553155D01*
X105575499Y-103553153D01*
X105568549Y-103518213D01*
X105544737Y-103398503D01*
X105533039Y-103370261D01*
X105484397Y-103252827D01*
X105484390Y-103252814D01*
X105396789Y-103121711D01*
X105396786Y-103121707D01*
X105285292Y-103010213D01*
X105285288Y-103010210D01*
X105154185Y-102922609D01*
X105154172Y-102922602D01*
X105008501Y-102862264D01*
X105008489Y-102862261D01*
X104853845Y-102831500D01*
X104853842Y-102831500D01*
X104696158Y-102831500D01*
X104696155Y-102831500D01*
X104541510Y-102862261D01*
X104541498Y-102862264D01*
X104395827Y-102922602D01*
X104395814Y-102922609D01*
X104264711Y-103010210D01*
X104264707Y-103010213D01*
X104153213Y-103121707D01*
X104153210Y-103121711D01*
X104065609Y-103252814D01*
X104065602Y-103252827D01*
X104005264Y-103398498D01*
X104005261Y-103398510D01*
X103974500Y-103553153D01*
X97555343Y-103553153D01*
X97561366Y-103522874D01*
X97561366Y-103522873D01*
X97574499Y-103456846D01*
X97574500Y-103456844D01*
X97574500Y-103299155D01*
X97574499Y-103299153D01*
X97565283Y-103252821D01*
X97543737Y-103144503D01*
X97528890Y-103108658D01*
X97483397Y-102998827D01*
X97483390Y-102998814D01*
X97395789Y-102867711D01*
X97395786Y-102867707D01*
X97284292Y-102756213D01*
X97284288Y-102756210D01*
X97153185Y-102668609D01*
X97153172Y-102668602D01*
X97007501Y-102608264D01*
X97007489Y-102608261D01*
X96852845Y-102577500D01*
X96852842Y-102577500D01*
X96695158Y-102577500D01*
X96695155Y-102577500D01*
X96540510Y-102608261D01*
X96540498Y-102608264D01*
X96394827Y-102668602D01*
X96394814Y-102668609D01*
X96263711Y-102756210D01*
X96263707Y-102756213D01*
X96152213Y-102867707D01*
X96152210Y-102867711D01*
X96064609Y-102998814D01*
X96064602Y-102998827D01*
X96004264Y-103144498D01*
X96004261Y-103144510D01*
X95973500Y-103299153D01*
X79724473Y-103299153D01*
X79731000Y-103266342D01*
X79731000Y-103108658D01*
X79731000Y-103108655D01*
X79730999Y-103108653D01*
X79711418Y-103010213D01*
X79700237Y-102954003D01*
X79687232Y-102922606D01*
X79639897Y-102808327D01*
X79639890Y-102808314D01*
X79552289Y-102677211D01*
X79552286Y-102677207D01*
X79440792Y-102565713D01*
X79440788Y-102565710D01*
X79309685Y-102478109D01*
X79309672Y-102478102D01*
X79261048Y-102457962D01*
X79206644Y-102414121D01*
X79184579Y-102347827D01*
X79201858Y-102280128D01*
X79252995Y-102232517D01*
X79261048Y-102228840D01*
X79373172Y-102182397D01*
X79373172Y-102182396D01*
X79373179Y-102182394D01*
X79504289Y-102094789D01*
X79615789Y-101983289D01*
X79670002Y-101902153D01*
X92036500Y-101902153D01*
X92036500Y-102059846D01*
X92067261Y-102214489D01*
X92067264Y-102214501D01*
X92127602Y-102360172D01*
X92127609Y-102360185D01*
X92215210Y-102491288D01*
X92215213Y-102491292D01*
X92326707Y-102602786D01*
X92326711Y-102602789D01*
X92457814Y-102690390D01*
X92457827Y-102690397D01*
X92603498Y-102750735D01*
X92603503Y-102750737D01*
X92741774Y-102778241D01*
X92758153Y-102781499D01*
X92758156Y-102781500D01*
X92758158Y-102781500D01*
X92915842Y-102781500D01*
X92932225Y-102778241D01*
X93001816Y-102784467D01*
X93044097Y-102812175D01*
X93099629Y-102867707D01*
X93152212Y-102920290D01*
X93283314Y-103007890D01*
X93283327Y-103007897D01*
X93428998Y-103068235D01*
X93429003Y-103068237D01*
X93583653Y-103098999D01*
X93583656Y-103099000D01*
X93583658Y-103099000D01*
X93741344Y-103099000D01*
X93741345Y-103098999D01*
X93895997Y-103068237D01*
X94008666Y-103021567D01*
X94041672Y-103007897D01*
X94041672Y-103007896D01*
X94041679Y-103007894D01*
X94172789Y-102920289D01*
X94284289Y-102808789D01*
X94371894Y-102677679D01*
X94432237Y-102531997D01*
X94463000Y-102377342D01*
X94463000Y-102219658D01*
X94463000Y-102219655D01*
X94462999Y-102219653D01*
X94432238Y-102065010D01*
X94432237Y-102065003D01*
X94430099Y-102059842D01*
X94371897Y-101919327D01*
X94371890Y-101919314D01*
X94284289Y-101788211D01*
X94284286Y-101788207D01*
X94172792Y-101676713D01*
X94172788Y-101676710D01*
X94041685Y-101589109D01*
X94041672Y-101589102D01*
X93896001Y-101528764D01*
X93895989Y-101528761D01*
X93741345Y-101498000D01*
X93741342Y-101498000D01*
X93583658Y-101498000D01*
X93583657Y-101498000D01*
X93567270Y-101501259D01*
X93497678Y-101495029D01*
X93455401Y-101467322D01*
X93347292Y-101359213D01*
X93347288Y-101359210D01*
X93216185Y-101271609D01*
X93216172Y-101271602D01*
X93070501Y-101211264D01*
X93070489Y-101211261D01*
X92915845Y-101180500D01*
X92915842Y-101180500D01*
X92758158Y-101180500D01*
X92758155Y-101180500D01*
X92603510Y-101211261D01*
X92603498Y-101211264D01*
X92457827Y-101271602D01*
X92457814Y-101271609D01*
X92326711Y-101359210D01*
X92326707Y-101359213D01*
X92215213Y-101470707D01*
X92215210Y-101470711D01*
X92127609Y-101601814D01*
X92127602Y-101601827D01*
X92067264Y-101747498D01*
X92067261Y-101747510D01*
X92036500Y-101902153D01*
X79670002Y-101902153D01*
X79703394Y-101852179D01*
X79712690Y-101829738D01*
X79763735Y-101706501D01*
X79763737Y-101706497D01*
X79794500Y-101551842D01*
X79794500Y-101394158D01*
X79794500Y-101394155D01*
X79794499Y-101394153D01*
X79787549Y-101359213D01*
X79763737Y-101239503D01*
X79752039Y-101211261D01*
X79703397Y-101093827D01*
X79703393Y-101093820D01*
X79688480Y-101071501D01*
X79628112Y-100981153D01*
X96005500Y-100981153D01*
X96005500Y-101138846D01*
X96036261Y-101293489D01*
X96036264Y-101293501D01*
X96096602Y-101439172D01*
X96096609Y-101439185D01*
X96184210Y-101570288D01*
X96184213Y-101570292D01*
X96295707Y-101681786D01*
X96295711Y-101681789D01*
X96426814Y-101769390D01*
X96426827Y-101769397D01*
X96572498Y-101829735D01*
X96572503Y-101829737D01*
X96727153Y-101860499D01*
X96727156Y-101860500D01*
X96727158Y-101860500D01*
X96884844Y-101860500D01*
X96884845Y-101860499D01*
X97039497Y-101829737D01*
X97185179Y-101769394D01*
X97316289Y-101681789D01*
X97427789Y-101570289D01*
X97515394Y-101439179D01*
X97575737Y-101293497D01*
X97606500Y-101138842D01*
X97606500Y-100981158D01*
X97606500Y-100981155D01*
X97606499Y-100981153D01*
X97593707Y-100916844D01*
X97575737Y-100826503D01*
X97549686Y-100763609D01*
X97547840Y-100759153D01*
X103847500Y-100759153D01*
X103847500Y-100916846D01*
X103878261Y-101071489D01*
X103878264Y-101071501D01*
X103938602Y-101217172D01*
X103938609Y-101217185D01*
X104026210Y-101348288D01*
X104026213Y-101348292D01*
X104137707Y-101459786D01*
X104137711Y-101459789D01*
X104268814Y-101547390D01*
X104268827Y-101547397D01*
X104400220Y-101601821D01*
X104414503Y-101607737D01*
X104569153Y-101638499D01*
X104569156Y-101638500D01*
X104569158Y-101638500D01*
X104726844Y-101638500D01*
X104726845Y-101638499D01*
X104881497Y-101607737D01*
X105016436Y-101551844D01*
X105027172Y-101547397D01*
X105027172Y-101547396D01*
X105027179Y-101547394D01*
X105158289Y-101459789D01*
X105269789Y-101348289D01*
X105357394Y-101217179D01*
X105359845Y-101211263D01*
X105389842Y-101138842D01*
X105417737Y-101071497D01*
X105448500Y-100916842D01*
X105448500Y-100759158D01*
X105448500Y-100759155D01*
X105448499Y-100759153D01*
X105432919Y-100680827D01*
X105417737Y-100604503D01*
X105395040Y-100549707D01*
X105357397Y-100458827D01*
X105357390Y-100458814D01*
X105269789Y-100327711D01*
X105269786Y-100327707D01*
X105158292Y-100216213D01*
X105158288Y-100216210D01*
X105027185Y-100128609D01*
X105027172Y-100128602D01*
X104881501Y-100068264D01*
X104881489Y-100068261D01*
X104726845Y-100037500D01*
X104726842Y-100037500D01*
X104569158Y-100037500D01*
X104569155Y-100037500D01*
X104414510Y-100068261D01*
X104414498Y-100068264D01*
X104268827Y-100128602D01*
X104268814Y-100128609D01*
X104137711Y-100216210D01*
X104137707Y-100216213D01*
X104026213Y-100327707D01*
X104026210Y-100327711D01*
X103938609Y-100458814D01*
X103938602Y-100458827D01*
X103878264Y-100604498D01*
X103878261Y-100604510D01*
X103847500Y-100759153D01*
X97547840Y-100759153D01*
X97515397Y-100680827D01*
X97515390Y-100680814D01*
X97427789Y-100549711D01*
X97427786Y-100549707D01*
X97316292Y-100438213D01*
X97316288Y-100438210D01*
X97185185Y-100350609D01*
X97185172Y-100350602D01*
X97039501Y-100290264D01*
X97039489Y-100290261D01*
X96884845Y-100259500D01*
X96884842Y-100259500D01*
X96727158Y-100259500D01*
X96727155Y-100259500D01*
X96572510Y-100290261D01*
X96572498Y-100290264D01*
X96426827Y-100350602D01*
X96426814Y-100350609D01*
X96295711Y-100438210D01*
X96295707Y-100438213D01*
X96184213Y-100549707D01*
X96184210Y-100549711D01*
X96096609Y-100680814D01*
X96096602Y-100680827D01*
X96036264Y-100826498D01*
X96036261Y-100826510D01*
X96005500Y-100981153D01*
X79628112Y-100981153D01*
X79615789Y-100962710D01*
X79504292Y-100851213D01*
X79504288Y-100851210D01*
X79373185Y-100763609D01*
X79373172Y-100763602D01*
X79227501Y-100703264D01*
X79227489Y-100703261D01*
X79072845Y-100672500D01*
X79072842Y-100672500D01*
X78915158Y-100672500D01*
X78915155Y-100672500D01*
X78760510Y-100703261D01*
X78760498Y-100703264D01*
X78614827Y-100763602D01*
X78614814Y-100763609D01*
X78483711Y-100851210D01*
X78483707Y-100851213D01*
X78372213Y-100962707D01*
X78372210Y-100962711D01*
X78284609Y-101093814D01*
X78284602Y-101093827D01*
X78224264Y-101239498D01*
X78224261Y-101239510D01*
X78193500Y-101394153D01*
X78193500Y-101551846D01*
X78224261Y-101706489D01*
X78224264Y-101706501D01*
X78284602Y-101852172D01*
X78284609Y-101852185D01*
X78372210Y-101983288D01*
X78372213Y-101983292D01*
X78483707Y-102094786D01*
X78483711Y-102094789D01*
X78614814Y-102182390D01*
X78614821Y-102182394D01*
X78663451Y-102202537D01*
X78717854Y-102246377D01*
X78739920Y-102312671D01*
X78722642Y-102380370D01*
X78671505Y-102427981D01*
X78663452Y-102431659D01*
X78551324Y-102478104D01*
X78551314Y-102478109D01*
X78420211Y-102565710D01*
X78420207Y-102565713D01*
X78308713Y-102677207D01*
X78308710Y-102677211D01*
X78221109Y-102808314D01*
X78221102Y-102808327D01*
X78160764Y-102953998D01*
X78160761Y-102954010D01*
X78130000Y-103108653D01*
X69972500Y-103108653D01*
X69972500Y-98346153D01*
X103593500Y-98346153D01*
X103593500Y-98503846D01*
X103624261Y-98658489D01*
X103624264Y-98658501D01*
X103684602Y-98804172D01*
X103684609Y-98804185D01*
X103772210Y-98935288D01*
X103772213Y-98935292D01*
X103883707Y-99046786D01*
X103883711Y-99046789D01*
X104014814Y-99134390D01*
X104014827Y-99134397D01*
X104160498Y-99194735D01*
X104160503Y-99194737D01*
X104315153Y-99225499D01*
X104315156Y-99225500D01*
X104315158Y-99225500D01*
X104472844Y-99225500D01*
X104472845Y-99225499D01*
X104627497Y-99194737D01*
X104773179Y-99134394D01*
X104904289Y-99046789D01*
X105015789Y-98935289D01*
X105103394Y-98804179D01*
X105163737Y-98658497D01*
X105194500Y-98503842D01*
X105194500Y-98346158D01*
X105194500Y-98346155D01*
X105194499Y-98346153D01*
X105163738Y-98191510D01*
X105163737Y-98191503D01*
X105163735Y-98191498D01*
X105103397Y-98045827D01*
X105103390Y-98045814D01*
X105015789Y-97914711D01*
X105015786Y-97914707D01*
X104904292Y-97803213D01*
X104904288Y-97803210D01*
X104773185Y-97715609D01*
X104773172Y-97715602D01*
X104627501Y-97655264D01*
X104627489Y-97655261D01*
X104472845Y-97624500D01*
X104472842Y-97624500D01*
X104315158Y-97624500D01*
X104315155Y-97624500D01*
X104160510Y-97655261D01*
X104160498Y-97655264D01*
X104014827Y-97715602D01*
X104014814Y-97715609D01*
X103883711Y-97803210D01*
X103883707Y-97803213D01*
X103772213Y-97914707D01*
X103772210Y-97914711D01*
X103684609Y-98045814D01*
X103684602Y-98045827D01*
X103624264Y-98191498D01*
X103624261Y-98191510D01*
X103593500Y-98346153D01*
X69972500Y-98346153D01*
X69972500Y-94051050D01*
X69972649Y-94044966D01*
X69990737Y-93676766D01*
X69991930Y-93664655D01*
X70045575Y-93303011D01*
X70047943Y-93291104D01*
X70136781Y-92936444D01*
X70140312Y-92924808D01*
X70210875Y-92727598D01*
X70263475Y-92580590D01*
X70268120Y-92569375D01*
X70424451Y-92238839D01*
X70430166Y-92228147D01*
X70618131Y-91914548D01*
X70624874Y-91904455D01*
X70842677Y-91610781D01*
X70850373Y-91601403D01*
X71095908Y-91330499D01*
X71104499Y-91321908D01*
X71375403Y-91076373D01*
X71384781Y-91068677D01*
X71678455Y-90850874D01*
X71688548Y-90844131D01*
X72002147Y-90656166D01*
X72012839Y-90650451D01*
X72343375Y-90494120D01*
X72354590Y-90489475D01*
X72698811Y-90366311D01*
X72710444Y-90362781D01*
X73065104Y-90273943D01*
X73077011Y-90271575D01*
X73438658Y-90217929D01*
X73450762Y-90216737D01*
X73818967Y-90198649D01*
X73825051Y-90198500D01*
X73856351Y-90198500D01*
X125787649Y-90198500D01*
X125818949Y-90198500D01*
X125825033Y-90198649D01*
G37*
%TD.AperFunction*%
%TD*%
M02*
