M48
; DRILL file KiCad 10.0.6 date 2026-09-29T18:21:18
; FORMAT={-:-/ absolute / metric / decimal}
; #@! TF.CreationDate,2026-09-29T18:21:18+02:00
; #@! TF.GenerationSoftware,Kicad,Pcbnew,10.0.6
; #@! TF.FileFunction,Plated,1,4,PTH
FMAT,2
METRIC
; #@! TA.AperFunction,Plated,PTH,ViaDrill
T1C0.300
; #@! TA.AperFunction,Plated,PTH,ComponentDrill
T2C0.600
; #@! TA.AperFunction,Plated,PTH,ComponentDrill
T3C1.100
; #@! TA.AperFunction,Plated,PTH,ComponentDrill
T4C2.200
%
G90
G05
T1
X76.006Y-109.859
X78.486Y-116.459
X78.74Y-108.585
X78.74Y-118.618
X78.867Y-110.363
X78.93Y-103.188
X78.994Y-101.473
X79.629Y-111.125
X80.772Y-103.124
X84.201Y-108.712
X84.201Y-109.982
X85.725Y-104.14
X85.725Y-105.156
X85.725Y-125.73
X86.487Y-113.919
X86.995Y-108.712
X86.995Y-109.982
X90.043Y-105.156
X91.567Y-108.712
X92.837Y-101.981
X93.662Y-102.298
X93.726Y-109.093
X94.107Y-106.299
X94.996Y-118.999
X96.774Y-103.378
X96.774Y-107.442
X96.806Y-101.06
X96.933Y-105.378
X101.219Y-113.8
X103.124Y-106.68
X103.505Y-114.427
X103.505Y-115.316
X103.632Y-116.332
X104.394Y-98.425
X104.521Y-125.476
X104.648Y-100.838
X104.775Y-103.632
X106.045Y-119.761
X107.808Y-109.967
X108.521Y-113.855
X109.093Y-118.491
X112.522Y-113.792
X115.316Y-106.172
X115.57Y-120.015
T3
X125.012Y-108.204
X125.012Y-112.014
T4
X73.66Y-126.238
X73.914Y-93.726
X125.476Y-93.726
X125.984Y-126.238
T2
G00X72.822Y-105.789
M15
G01X72.022Y-105.789
M16
G05
G00X72.822Y-114.429
M15
G01X72.022Y-114.429
M16
G05
G00X77.152Y-105.789
M15
G01X76.052Y-105.789
M16
G05
G00X77.152Y-114.429
M15
G01X76.052Y-114.429
M16
G05
M30
